<svg width="19" height="16" viewBox="0 0 19 16" fill="none" xmlns="http://www.w3.org/2000/svg">
<path fill-rule="evenodd" clip-rule="evenodd" d="M9.3285 0.453557C9.433 0.34879 9.55715 0.265668 9.69382 0.208954C9.8305 0.152239 9.97702 0.123047 10.125 0.123047C10.273 0.123047 10.4195 0.152239 10.5562 0.208954C10.6928 0.265668 10.817 0.34879 10.9215 0.453557L17.6715 7.20356C17.7763 7.30806 17.8594 7.4322 17.9161 7.56888C17.9728 7.70556 18.002 7.85208 18.002 8.00006C18.002 8.14803 17.9728 8.29455 17.9161 8.43123C17.8594 8.56791 17.7763 8.69205 17.6715 8.79656L10.9215 15.5466C10.7103 15.7578 10.4237 15.8765 10.125 15.8765C9.82625 15.8765 9.53974 15.7578 9.3285 15.5466C9.11725 15.3353 8.99857 15.0488 8.99857 14.7501C8.99857 14.4513 9.11725 14.1648 9.3285 13.9536L15.2842 8.00006L9.3285 2.04656C9.22373 1.94205 9.14061 1.81791 9.08389 1.68123C9.02718 1.54456 8.99799 1.39803 8.99799 1.25006C8.99799 1.10208 9.02718 0.955558 9.08389 0.818882C9.14061 0.682205 9.22373 0.55806 9.3285 0.453557Z" fill="white"/>
<path fill-rule="evenodd" clip-rule="evenodd" d="M0 8C0 7.70163 0.118527 7.41548 0.329505 7.2045C0.540484 6.99353 0.826632 6.875 1.125 6.875L15.75 6.875C16.0484 6.875 16.3345 6.99353 16.5455 7.2045C16.7565 7.41548 16.875 7.70163 16.875 8C16.875 8.29837 16.7565 8.58452 16.5455 8.79549C16.3345 9.00647 16.0484 9.125 15.75 9.125L1.125 9.125C0.826632 9.125 0.540484 9.00647 0.329505 8.79549C0.118527 8.58452 0 8.29837 0 8Z" fill="white"/>
</svg>
