<svg xmlns="http://www.w3.org/2000/svg" width="0" height="0" class="hidden">
    <symbol id="logo" viewBox="0 0 31 43">
        <path d="M30.994 15.16C30.9789 14.5052 30.9385 13.8589 30.8817 13.2163C30.8249 12.5749 30.7492 11.9372 30.6622 11.3031C30.618 10.9867 30.5713 10.6703 30.5209 10.3551C30.4691 10.0399 30.4149 9.72591 30.3568 9.41194C30.2408 8.78521 30.1108 8.16092 29.9657 7.5403C29.8206 6.9209 29.6503 6.30639 29.4459 5.70654C29.2415 5.10669 29.0043 4.51783 28.7254 3.95341C28.6548 3.81291 28.5816 3.67364 28.5071 3.53681C28.4693 3.46839 28.4302 3.4012 28.3911 3.33278C28.3519 3.26559 28.3116 3.1984 28.2699 3.13243C28.1046 2.86854 27.9293 2.61321 27.7299 2.38231C27.8107 2.69384 27.8889 2.99682 27.9633 3.30102L28.0176 3.52826C28.0365 3.604 28.0542 3.67975 28.0706 3.75549C28.0882 3.83124 28.1072 3.90576 28.1236 3.9815C28.14 4.05725 28.1564 4.13299 28.174 4.20752C28.3078 4.81226 28.4314 5.41455 28.5488 6.01807C28.7797 7.2251 29.0143 8.43214 29.1733 9.65628C29.2541 10.2683 29.3235 10.8816 29.3815 11.4949C29.4383 12.1094 29.4825 12.724 29.5102 13.3372C29.5405 13.9505 29.5544 14.5626 29.5455 15.1661C29.5405 15.4679 29.5304 15.7672 29.5115 16.0604C29.4925 16.3524 29.4648 16.6407 29.4219 16.9022C29.4004 17.0304 29.3752 17.1575 29.3462 17.2577C29.3386 17.2833 29.331 17.3029 29.3247 17.3273C29.3222 17.3346 29.3209 17.3407 29.3184 17.3468L29.2023 17.414L28.8339 17.6315C28.3494 17.9174 27.8687 18.191 27.3943 18.4268C27.1571 18.5441 26.9211 18.6516 26.694 18.7347C26.6372 18.7567 26.5817 18.7738 26.5262 18.7933C26.472 18.8092 26.4177 18.8275 26.3672 18.8385C26.265 18.8642 26.1666 18.8837 26.096 18.8874C26.0783 18.8886 26.0644 18.8874 26.0493 18.8886C26.0392 18.8886 26.0316 18.8874 26.0253 18.8862C26.0064 18.8752 25.9862 18.8617 25.9635 18.8471C25.9143 18.8141 25.86 18.7775 25.8058 18.7396C25.5862 18.5856 25.3566 18.4158 25.1269 18.2472C24.6677 17.9076 24.2034 17.5606 23.7315 17.2222C23.2596 16.8826 22.7826 16.5454 22.2817 16.2204C22.0307 16.058 21.7733 15.9016 21.4868 15.7501C21.4149 15.7122 21.3405 15.6756 21.261 15.6389C21.1815 15.6023 21.097 15.5656 20.9973 15.5314L20.9594 15.518L20.9178 15.5058L20.8762 15.4935L20.8282 15.4813L20.7803 15.4703L20.7235 15.4593C20.6894 15.4532 20.639 15.4471 20.5923 15.4434L20.5746 15.4422H20.5519H20.5065C20.4737 15.4434 20.451 15.4434 20.4055 15.4496C20.3854 15.452 20.3652 15.4557 20.345 15.4593L20.3147 15.4654L20.2907 15.4715L20.2617 15.4789L20.1481 15.5106C19.9728 15.5607 19.8075 15.6157 19.6485 15.6695C19.6472 15.6255 19.646 15.5815 19.6422 15.5387C19.9513 15.331 20.263 15.138 20.5658 14.9743C20.6112 14.9487 20.6566 14.9291 20.7021 14.9059L20.7702 14.8717L20.8043 14.8546L20.8371 14.8412L20.967 14.785L20.9998 14.7703C21.0099 14.7666 21.02 14.763 21.0301 14.7593L21.0894 14.7385C21.1638 14.7092 21.2585 14.6836 21.3544 14.6591C21.4515 14.6359 21.5525 14.6127 21.6559 14.5919C22.071 14.5064 22.5139 14.4453 22.9631 14.383L23.6457 14.2877C23.8766 14.2547 24.1113 14.2193 24.3586 14.1717C24.4835 14.1472 24.6109 14.1204 24.7585 14.0788L24.7863 14.0715L24.8166 14.0617L24.8771 14.0422C24.8961 14.0361 24.9225 14.0263 24.9453 14.0177L24.9806 14.0043L24.9983 13.997L25.0197 13.9872C25.0487 13.9737 25.0777 13.9603 25.1068 13.9469C25.1131 13.9444 25.1257 13.9371 25.1345 13.9322L25.1648 13.9151C25.185 13.9029 25.2052 13.8919 25.2241 13.8785L25.2392 13.8687C25.2367 13.8699 25.2556 13.8589 25.2859 13.8345C25.3112 13.8149 25.3351 13.7942 25.3591 13.7722C25.3831 13.749 25.4045 13.727 25.4197 13.7086C25.4373 13.6891 25.4537 13.6683 25.4689 13.6476C25.484 13.628 25.5029 13.6011 25.5118 13.5865C25.5332 13.5523 25.5534 13.5168 25.5711 13.4802C25.5799 13.4619 25.585 13.4509 25.5913 13.4362L25.6089 13.3934C25.614 13.38 25.6203 13.3641 25.6253 13.3507L25.6367 13.3177C25.6443 13.2957 25.6506 13.2725 25.6556 13.2505L25.6682 13.198C25.6834 13.1271 25.6897 13.077 25.6947 13.0306C25.6998 12.9854 25.701 12.9463 25.7023 12.9121C25.7048 12.8425 25.7036 12.785 25.7023 12.7337C25.6985 12.6299 25.6897 12.5444 25.6808 12.4625C25.6619 12.3 25.6392 12.1546 25.614 12.0129C25.5635 11.7307 25.508 11.4656 25.4487 11.2029C25.3894 10.9403 25.3276 10.6825 25.2632 10.4259C25.1333 9.91405 24.9983 9.40827 24.8582 8.90493C24.7169 8.40282 24.5718 7.90315 24.4242 7.40592C24.2765 6.90746 24.1226 6.41268 23.9687 5.91789L23.7353 5.17632L23.4943 4.4372L23.2482 3.69929L23.1221 3.33034L23.0577 3.14586L23.0413 3.09944L23.0325 3.07501L23.0211 3.05302L22.9757 2.93695C22.852 2.62909 22.6893 2.35787 22.5076 2.12453C22.3246 1.89363 22.1291 1.69205 21.9234 1.51612C21.719 1.33776 21.5058 1.18871 21.29 1.0531C21.0755 0.91505 20.8522 0.801432 20.6314 0.695144C20.5204 0.64139 20.4081 0.594965 20.2958 0.548541C20.1835 0.503338 20.0712 0.458136 19.9564 0.420263C19.7293 0.339631 19.5009 0.271216 19.2712 0.212575C19.0416 0.155155 18.8107 0.106287 18.5773 0.0696366C18.3451 0.0329858 18.1117 0.00610847 17.8758 0.00122169C18.2909 0.249226 18.6959 0.493565 19.0908 0.750121C19.2889 0.877177 19.482 1.0079 19.6725 1.14106C19.7204 1.17405 19.7671 1.20826 19.8138 1.24246C19.8605 1.27667 19.9084 1.30844 19.9551 1.34386L20.0939 1.44771L20.2302 1.554C20.4106 1.69449 20.586 1.84109 20.7513 1.99136C20.7942 2.02801 20.8333 2.06711 20.8736 2.1062C20.914 2.1453 20.9544 2.18317 20.9922 2.22348L21.1083 2.34077L21.2168 2.46294C21.3569 2.62787 21.4881 2.79402 21.5941 2.9675C21.6988 3.14098 21.7808 3.3169 21.8351 3.48916L21.8553 3.55391L21.8603 3.56979L21.8666 3.59178L21.8792 3.63699L21.9297 3.82024L22.0307 4.19041L22.2287 4.93443L22.6148 6.42734C22.7423 6.92579 22.8659 7.42546 22.9908 7.92391C23.1145 8.42237 23.2369 8.92204 23.353 9.42049C23.4716 9.91894 23.5876 10.4174 23.6936 10.9134C23.7466 11.1614 23.7983 11.4082 23.8476 11.6537C23.8892 11.8675 23.9283 12.0789 23.9598 12.2841C23.7933 12.3098 23.6204 12.333 23.4451 12.3562L22.765 12.4417C22.5353 12.4698 22.3032 12.5028 22.0698 12.5383C21.8351 12.5737 21.5979 12.6128 21.3544 12.6629C21.2332 12.6873 21.1096 12.7166 20.9834 12.7484C20.8572 12.7814 20.7298 12.8156 20.586 12.8693C20.3033 12.9671 20.0687 13.0917 19.834 13.2163C19.6056 13.3446 19.3861 13.4777 19.1766 13.6207L19.0189 13.727L18.865 13.8357C18.8359 13.8565 18.8082 13.8772 18.7792 13.898C18.5899 13.7575 18.3779 13.6537 18.1521 13.5962C18.1735 13.5205 18.195 13.4435 18.2139 13.3653C18.2644 13.1638 18.3085 12.9561 18.3413 12.7362C18.3489 12.68 18.359 12.6287 18.3641 12.5688C18.3704 12.5114 18.3767 12.4527 18.3817 12.3953L18.3918 12.2108C18.3931 12.1815 18.3931 12.1473 18.3931 12.1131L18.3906 12.0129L18.3893 11.9628C18.388 11.9445 18.3868 11.9176 18.3842 11.8969C18.3805 11.8517 18.3754 11.8065 18.3678 11.7649C18.3603 11.7222 18.3527 11.6794 18.3413 11.6428C18.33 11.6049 18.3199 11.5646 18.3073 11.5304C18.2568 11.3874 18.1912 11.2701 18.1243 11.17C17.9881 10.9684 17.8392 10.8218 17.6878 10.6935C17.5351 10.5677 17.3736 10.4687 17.2033 10.393C17.0329 10.3184 16.8563 10.2622 16.6645 10.2476C16.7478 10.443 16.8336 10.6153 16.9169 10.7827C17.0001 10.9488 17.0821 11.1064 17.1541 11.2567C17.1894 11.3324 17.2235 11.4045 17.25 11.4778C17.2764 11.5499 17.2966 11.6208 17.3092 11.6831C17.3231 11.7466 17.3244 11.804 17.3181 11.8419C17.3181 11.8529 17.313 11.859 17.3118 11.8675C17.3105 11.8761 17.3055 11.8798 17.3029 11.8846C17.3004 11.8895 17.2954 11.892 17.2916 11.8932C17.2891 11.8944 17.2891 11.8932 17.2865 11.8969L17.279 11.9176C17.2739 11.9311 17.2689 11.9445 17.2638 11.958C17.2588 11.9714 17.255 11.9836 17.2474 12.0007L17.2096 12.0936C17.1944 12.1278 17.1793 12.1608 17.1654 12.1937C17.1515 12.2267 17.1326 12.2634 17.1175 12.2976C17.0506 12.4369 16.9762 12.581 16.8954 12.7252C16.8563 12.7973 16.8146 12.8706 16.773 12.9426C16.7377 13.0049 16.7011 13.0673 16.6645 13.1296C16.5636 13.0624 16.4462 13.0233 16.3201 13.0233C16.1257 13.0233 15.9491 13.1161 15.8242 13.2639C15.6993 13.1161 15.5226 13.0233 15.3283 13.0233C15.1933 13.0233 15.0672 13.0685 14.9599 13.1454C14.9195 13.0782 14.8804 13.0098 14.8426 12.9414C14.8009 12.8693 14.7593 12.796 14.7202 12.724C14.6394 12.5798 14.565 12.4356 14.4981 12.2964C14.4817 12.2622 14.4628 12.2255 14.4502 12.1925C14.4363 12.1595 14.4211 12.1265 14.406 12.0923L14.3682 11.9995C14.3606 11.9824 14.3568 11.9702 14.3517 11.9567C14.3467 11.9433 14.3417 11.9299 14.3366 11.9164L14.329 11.8956C14.3265 11.8908 14.3265 11.8932 14.324 11.892C14.3202 11.8908 14.3152 11.8883 14.3126 11.8834C14.3101 11.8785 14.3051 11.8749 14.3038 11.8663C14.3025 11.859 14.2975 11.8517 14.2975 11.8407C14.2899 11.8016 14.2924 11.7454 14.3063 11.6818C14.3189 11.6183 14.3391 11.5487 14.3656 11.4766C14.3921 11.4045 14.4275 11.3312 14.4615 11.2555C14.5334 11.1052 14.6142 10.9476 14.6987 10.7815C14.782 10.6141 14.8691 10.4418 14.9511 10.2464C14.7593 10.261 14.5826 10.3172 14.4123 10.3917C14.242 10.4675 14.0805 10.5664 13.9278 10.6923C13.7764 10.8206 13.6275 10.9672 13.4912 11.1687C13.4244 11.2689 13.3588 11.3862 13.3083 11.5291C13.2944 11.5633 13.2843 11.6037 13.2742 11.6415C13.2629 11.6794 13.2553 11.7222 13.2477 11.7637C13.2389 11.8052 13.2351 11.8504 13.2313 11.8956C13.2301 11.9176 13.2275 11.9433 13.2263 11.9616L13.225 12.0117L13.2225 12.1119C13.2225 12.1461 13.2212 12.1803 13.2238 12.2096L13.2339 12.3941C13.2389 12.4515 13.2452 12.5089 13.2515 12.5676C13.2578 12.6262 13.2667 12.6788 13.2742 12.7349C13.307 12.9549 13.3512 13.1638 13.4017 13.3641C13.4206 13.4423 13.442 13.5193 13.4635 13.595C13.119 13.6818 12.8086 13.8772 12.5601 14.146C12.5197 14.1155 12.4806 14.0849 12.4402 14.0556C12.3393 13.9823 12.2396 13.9066 12.1349 13.8345L11.981 13.7257L11.8232 13.6195C11.6138 13.4765 11.393 13.3434 11.1659 13.2151C10.9312 13.0905 10.6978 12.9658 10.4139 12.8681C10.2713 12.8144 10.1439 12.7802 10.0164 12.7472C9.89026 12.7154 9.76661 12.6861 9.64548 12.6616C9.40197 12.6116 9.16476 12.5725 8.93008 12.537C8.6954 12.5016 8.4645 12.4686 8.23487 12.4405L7.55479 12.355C7.37815 12.3318 7.20655 12.3074 7.04001 12.2829C7.07281 12.0777 7.11066 11.8663 7.1523 11.6525C7.20025 11.4082 7.25324 11.1602 7.30623 10.9122C7.41222 10.4162 7.5283 9.91772 7.6469 9.41927C7.76424 8.92082 7.88537 8.42114 8.00902 7.92269C8.13393 7.42424 8.25632 6.92457 8.38501 6.42612L8.7711 4.9332L8.96919 4.18919L9.07013 3.81902L9.1206 3.63576L9.13322 3.59056L9.13953 3.56857L9.14458 3.55269L9.16476 3.48794C9.21902 3.31568 9.30103 3.13976 9.40575 2.96628C9.51174 2.79279 9.64296 2.62664 9.78301 2.46172L9.89152 2.33955L10.0076 2.22226C10.0455 2.18195 10.0858 2.14407 10.1262 2.10498C10.1666 2.06589 10.2057 2.02679 10.2486 1.99014C10.4139 1.83865 10.5893 1.69327 10.7697 1.55277L10.906 1.44649L11.0447 1.34264C11.0914 1.30844 11.1381 1.27545 11.1861 1.24124C11.2327 1.20703 11.2794 1.17283 11.3274 1.13984C11.5179 1.00668 11.7122 0.875955 11.909 0.748899C12.304 0.493565 12.709 0.248004 13.1241 0C12.8894 0.00488678 12.656 0.0329858 12.4226 0.0684149C12.1904 0.105066 11.9595 0.153934 11.7286 0.211353C11.499 0.269995 11.2693 0.33841 11.0435 0.419041C10.9299 0.456914 10.8164 0.502117 10.7041 0.547319C10.5918 0.593744 10.4795 0.64139 10.3685 0.693923C10.1464 0.801432 9.92433 0.913828 9.70983 1.05188C9.49407 1.18749 9.28084 1.33653 9.07644 1.5149C8.87078 1.6896 8.67521 1.89241 8.49226 2.12331C8.31057 2.35665 8.14907 2.62787 8.02416 2.93573L7.98 3.05302L7.96864 3.08234L7.95981 3.10677L7.94341 3.15319L7.87906 3.33767L7.75288 3.70662L7.50685 4.44453L7.26586 5.18365L7.03243 5.92522C6.8785 6.42001 6.72457 6.91479 6.57695 7.41325C6.42933 7.9117 6.28423 8.41015 6.14291 8.91226C6.00286 9.4156 5.86786 9.92016 5.7379 10.4333C5.67229 10.6898 5.61046 10.9476 5.55242 11.2103C5.49312 11.4729 5.43634 11.7393 5.38713 12.0203C5.3619 12.162 5.33919 12.3061 5.32026 12.4698C5.31143 12.5517 5.3026 12.6372 5.29881 12.7411C5.29629 12.7924 5.29629 12.8498 5.29881 12.9194C5.30008 12.9536 5.3026 12.9927 5.30638 13.0379C5.31143 13.0844 5.31774 13.1344 5.33288 13.2053L5.3455 13.2578C5.35054 13.2786 5.35811 13.303 5.36442 13.325L5.37578 13.358C5.37956 13.3702 5.38587 13.3861 5.39218 13.4008L5.40985 13.4435C5.41615 13.4582 5.4212 13.4692 5.43003 13.4875C5.4477 13.5242 5.46789 13.5596 5.48934 13.5938C5.49817 13.6085 5.51709 13.6353 5.53223 13.6549C5.54864 13.6757 5.56504 13.6964 5.58144 13.716C5.59658 13.7343 5.61803 13.7563 5.642 13.7795C5.66472 13.8015 5.68995 13.8223 5.71519 13.8418C5.74547 13.865 5.76439 13.8772 5.76187 13.876L5.77701 13.8858C5.7972 13.898 5.81612 13.9102 5.83631 13.9224L5.86659 13.9395C5.87543 13.9444 5.88804 13.9518 5.89435 13.9542C5.92337 13.9676 5.95239 13.9811 5.98141 13.9945L6.00286 14.0043L6.02052 14.0116L6.05585 14.0251C6.07856 14.0336 6.10506 14.0434 6.12399 14.0495L6.18455 14.069L6.21483 14.0788L6.24259 14.0861C6.39021 14.1277 6.51765 14.1546 6.64256 14.179C6.88986 14.2266 7.12454 14.2621 7.35544 14.2951L8.03804 14.3903C8.48595 14.4539 8.93008 14.515 9.34393 14.5993C9.44739 14.62 9.54833 14.642 9.64548 14.6664C9.74137 14.6909 9.83727 14.7165 9.91045 14.7459L9.96975 14.7666C9.97984 14.7703 9.98994 14.7727 10 14.7776L10.0328 14.7923L10.1628 14.8485L10.1956 14.8619L10.2297 14.879L10.2978 14.9132C10.3432 14.9364 10.3874 14.956 10.4341 14.9816C10.8 15.1796 11.1785 15.4178 11.5494 15.6768C11.6087 15.7183 11.668 15.7623 11.7286 15.8051C11.7109 15.799 11.6933 15.7941 11.6756 15.788C11.422 15.7024 11.1495 15.6035 10.8517 15.5192L10.7381 15.4874L10.7091 15.4801L10.6852 15.474L10.6549 15.4679C10.6347 15.4642 10.6145 15.4606 10.5943 15.4581C10.5489 15.452 10.5262 15.452 10.4934 15.4508H10.4479H10.4252L10.4076 15.452C10.3609 15.4557 10.3104 15.4606 10.2764 15.4679L10.2196 15.4789L10.1716 15.4899L10.1237 15.5021L10.082 15.5143L10.0404 15.5265L10.0026 15.54C9.90288 15.5754 9.81834 15.6108 9.73885 15.6475C9.6581 15.6841 9.58492 15.7208 9.513 15.7586C9.22659 15.9101 8.97046 16.0653 8.71811 16.229C8.2172 16.554 7.74153 16.8912 7.26838 17.2308C6.79649 17.5692 6.33217 17.9174 5.8729 18.2558C5.64327 18.4244 5.41363 18.5942 5.19409 18.7481C5.13984 18.786 5.08558 18.8227 5.03637 18.8556C5.01366 18.8703 4.99347 18.8837 4.97455 18.8947C4.96698 18.8947 4.96067 18.896 4.95058 18.8972C4.93543 18.896 4.92156 18.8972 4.90389 18.896C4.83323 18.8935 4.73482 18.8727 4.63262 18.8471C4.58215 18.8349 4.52663 18.8165 4.47364 18.8019C4.41812 18.7823 4.36387 18.7652 4.30583 18.7432C4.07872 18.6602 3.84277 18.5514 3.60557 18.4354C3.13116 18.1984 2.6517 17.9259 2.16593 17.6401L1.7975 17.4226L1.68142 17.3468C1.6789 17.342 1.67638 17.3359 1.67512 17.3273C1.66881 17.3041 1.65998 17.2833 1.65367 17.2577C1.62465 17.1587 1.59941 17.0317 1.57796 16.9022C1.53506 16.6407 1.50604 16.3524 1.48838 16.0604C1.46945 15.7672 1.45936 15.4679 1.45431 15.1661C1.44548 14.5626 1.45936 13.9505 1.48964 13.3372C1.51866 12.724 1.56282 12.1082 1.61834 11.4949C1.67638 10.8804 1.74577 10.2671 1.82652 9.65628C1.9855 8.43214 2.22019 7.2251 2.45108 6.01807C2.56842 5.41455 2.69207 4.81226 2.82582 4.20752C2.84348 4.13299 2.85988 4.05725 2.87629 3.9815C2.89269 3.90576 2.91161 3.83124 2.92928 3.75549C2.94568 3.67975 2.96335 3.604 2.98227 3.52826L3.03653 3.30102C3.10971 2.99682 3.1892 2.69384 3.26995 2.38231C3.07059 2.61443 2.89395 2.86854 2.72992 3.13243C2.68829 3.1984 2.64791 3.26437 2.6088 3.33278C2.56968 3.39998 2.53057 3.46839 2.49272 3.53681C2.41828 3.67364 2.34383 3.81291 2.27444 3.95341C1.9956 4.51661 1.75839 5.10546 1.55399 5.70654C1.34959 6.30761 1.17799 6.9209 1.03416 7.5403C0.889056 8.1597 0.76036 8.78399 0.643019 9.41194C0.584979 9.72591 0.530724 10.0399 0.478993 10.3551C0.428524 10.6703 0.38184 10.9867 0.337679 11.3031C0.25062 11.9372 0.176177 12.5749 0.118138 13.2163C0.0613597 13.8577 0.022246 14.504 0.00584343 15.16C-0.00172697 15.4874 -0.0029887 15.8185 0.0083669 16.1533C0.0197225 16.4892 0.0399102 16.8288 0.0865943 17.1893C0.111829 17.3701 0.139587 17.5533 0.190056 17.7549C0.202674 17.805 0.217815 17.8587 0.232955 17.91C0.248096 17.9626 0.268284 18.0212 0.28721 18.075C0.290995 18.0884 0.297304 18.1031 0.303612 18.119L0.322538 18.1642C0.335156 18.1947 0.347773 18.224 0.361652 18.2546C0.378055 18.2888 0.395719 18.3218 0.413383 18.3547L0.43988 18.4048C0.449973 18.4232 0.463853 18.4427 0.475208 18.461C0.500443 18.4989 0.523154 18.5343 0.552174 18.571C0.586241 18.6125 0.621569 18.6516 0.659421 18.6907C0.669515 18.7005 0.677085 18.709 0.688441 18.7188L0.725031 18.7494C0.749004 18.7701 0.774239 18.7884 0.800735 18.8068L0.839849 18.8337L0.866345 18.8508L0.887795 18.8642L1.06444 18.9754L1.42655 19.2038C1.91485 19.5117 2.41323 19.822 2.94442 20.1018C3.21065 20.241 3.48444 20.3767 3.78095 20.4939C3.85413 20.5245 3.93109 20.5514 4.0068 20.5795C4.08629 20.6051 4.16325 20.6332 4.24779 20.6552C4.41434 20.7016 4.5872 20.7432 4.79286 20.759C4.84459 20.7627 4.90011 20.7639 4.9531 20.7664C5.00862 20.7664 5.07044 20.7627 5.12848 20.759C5.1903 20.7529 5.25718 20.7407 5.32152 20.7285C5.35685 20.7187 5.39344 20.709 5.42877 20.698C5.46536 20.6857 5.49817 20.6784 5.53728 20.6601C5.61046 20.6295 5.70383 20.5807 5.73285 20.5624C5.77449 20.5379 5.81234 20.5147 5.84767 20.4927C5.91832 20.4475 5.98393 20.4048 6.04702 20.362C6.30063 20.191 6.53531 20.0224 6.77126 19.8513L8.16421 18.841C8.62474 18.5087 9.08654 18.1825 9.54454 17.8856C9.77292 17.7378 10.0013 17.5936 10.2145 17.4776C10.2675 17.4495 10.3192 17.4214 10.3672 17.3994C10.4063 17.3798 10.4416 17.3652 10.4719 17.353C10.7066 17.4177 10.9564 17.4971 11.2264 17.5802C11.3652 17.623 11.5103 17.6657 11.6693 17.7048C11.7097 17.7146 11.7488 17.7244 11.7942 17.7329L11.8586 17.7463L11.9292 17.7586C11.9393 17.7598 11.9494 17.761 11.9595 17.7634V17.91C11.8977 17.8991 11.8346 17.8905 11.7728 17.8807C11.6971 17.8722 11.6239 17.8612 11.5469 17.8551C11.2441 17.827 10.9337 17.8209 10.6044 17.8624C10.564 17.8661 10.5224 17.8734 10.4795 17.8807L10.3533 17.9039C10.2688 17.921 10.1805 17.9467 10.0947 17.9699C10.0505 17.9846 10.0051 18.0017 9.96092 18.0176L9.89404 18.042C9.87133 18.0505 9.85115 18.0579 9.82213 18.0725L9.74011 18.1129L9.69974 18.1336C9.68586 18.141 9.67829 18.1458 9.66693 18.1532L9.54328 18.2289C9.47389 18.2766 9.39945 18.3266 9.33888 18.3743L9.24299 18.4464L9.15341 18.5185C9.09284 18.5661 9.03607 18.6137 8.97929 18.6626C8.92125 18.7103 8.86699 18.7591 8.81148 18.8068C8.37239 19.1916 7.96359 19.585 7.55732 19.9808C7.1523 20.3767 6.75611 20.7798 6.36119 21.1805L5.18526 22.3778C5.0881 22.4755 4.99095 22.5745 4.89758 22.6661L4.82819 22.7345L4.76132 22.798C4.70832 22.8469 4.70832 22.8481 4.63136 22.9129C4.50771 23.0167 4.40046 23.1157 4.29195 23.2159L4.13297 23.3674L3.97652 23.5189C3.77085 23.7217 3.56898 23.9281 3.36962 24.1383C3.26995 24.2433 3.17027 24.3508 3.07185 24.4596L2.92297 24.6257C2.8725 24.6843 2.82455 24.7381 2.77282 24.8016L2.69712 24.8945L2.61637 24.9983L2.60628 25.0118L2.59366 25.0289L2.56968 25.0631L2.52174 25.1327C2.52174 25.1327 2.50534 25.1596 2.49777 25.173C2.48893 25.1889 2.4801 25.206 2.47127 25.2231C2.46244 25.2402 2.45487 25.2573 2.4473 25.2744C2.44099 25.2903 2.43089 25.3135 2.42837 25.3233C2.41828 25.3551 2.40818 25.388 2.39935 25.421L2.39304 25.4455L2.39052 25.4601L2.38421 25.4907C2.38042 25.5102 2.37664 25.5334 2.37412 25.5505L2.36276 25.6422L2.35645 25.7203L2.35267 25.7924C2.35141 25.8169 2.35014 25.8401 2.35014 25.8608C2.34888 25.906 2.34762 25.95 2.34762 25.9916C2.34636 26.0343 2.34762 26.0759 2.34762 26.1174C2.35141 26.4473 2.36907 26.7588 2.39052 27.0703C2.43594 27.6909 2.50407 28.3006 2.58483 28.9065C2.6252 29.2095 2.66936 29.5113 2.71731 29.813C2.76652 30.1136 2.81825 30.4141 2.8725 30.7134C3.0933 31.9095 3.36205 33.0908 3.68253 34.2551C4.00301 35.4182 4.38406 36.5604 4.84837 37.6587C5.31143 38.7558 5.84893 39.8138 6.49367 40.779C6.44573 40.6372 6.39147 40.4992 6.34353 40.3587C6.29306 40.2194 6.24259 40.0801 6.19464 39.9397C6.09623 39.6599 6.0016 39.3801 5.90823 39.1003C5.72402 38.5396 5.54864 37.9764 5.38461 37.412C5.05656 36.2807 4.76636 35.1396 4.51402 33.9888C4.26293 32.8379 4.06105 31.6724 3.90838 30.5021C3.87053 30.2089 3.8352 29.9169 3.80366 29.6237C3.77085 29.3305 3.74057 29.0372 3.71534 28.744C3.66361 28.1576 3.62449 27.57 3.60809 26.9909C3.60052 26.7026 3.59674 26.4118 3.60683 26.1406C3.60809 26.1064 3.60935 26.0734 3.61188 26.0417C3.61314 26.0087 3.61566 25.9781 3.61819 25.9476C3.61819 25.9415 3.61945 25.9366 3.61945 25.9305L3.63459 25.9134L3.69641 25.845C3.73679 25.7998 3.78473 25.7509 3.82763 25.7032L3.96642 25.5603C4.06105 25.465 4.15695 25.3697 4.2541 25.2756C4.44841 25.0863 4.6465 24.9006 4.84585 24.7198L4.996 24.5854L5.14614 24.4547C5.24456 24.3704 5.3455 24.2849 5.4376 24.2152C5.46662 24.1932 5.57513 24.1077 5.6256 24.0625C5.65715 24.0356 5.6849 24.0112 5.71392 23.9855L5.7972 23.911C5.90697 23.8121 6.01043 23.7168 6.11389 23.619C6.52648 23.2318 6.92771 22.8445 7.33147 22.4609C7.73396 22.0773 8.13897 21.6973 8.54273 21.3235C8.94522 20.9496 9.35276 20.5807 9.75652 20.2435C9.80698 20.202 9.85745 20.1592 9.90666 20.1201C9.95587 20.0798 10.0063 20.0395 10.0555 20.0028L10.1287 19.9466L10.1994 19.8953C10.2473 19.8587 10.2877 19.8342 10.3306 19.8049C10.3483 19.7951 10.3647 19.7854 10.3811 19.7756C10.3849 19.7731 10.3912 19.7695 10.3924 19.7695L10.3975 19.7682C10.4 19.767 10.4038 19.7658 10.4063 19.7646C10.4063 19.7634 10.4177 19.7597 10.4265 19.7573L10.4543 19.7487L10.5098 19.7292C10.5527 19.7206 10.5918 19.7084 10.6372 19.6998L10.7066 19.6888C10.7293 19.6852 10.752 19.6803 10.7773 19.6791C10.9716 19.6595 11.1898 19.662 11.4119 19.6852C11.4674 19.6901 11.5242 19.6986 11.5797 19.7059C11.6302 19.7145 11.6819 19.7218 11.7324 19.7316C11.6365 19.7585 11.5419 19.7854 11.446 19.8135C11.2126 19.8819 10.9791 19.9539 10.7407 20.037L10.5602 20.1018C10.4984 20.1262 10.4379 20.147 10.3735 20.1751L10.2776 20.2154C10.2461 20.2288 10.2095 20.2459 10.1754 20.2618L10.1237 20.2862L10.106 20.2948L10.0858 20.3058L10.0442 20.3278C10.0164 20.3424 9.9912 20.3583 9.96596 20.3754C9.94199 20.3913 9.91549 20.4084 9.89278 20.4255C9.79941 20.4927 9.72119 20.5648 9.64927 20.6369C9.57987 20.709 9.51552 20.7823 9.46127 20.8543C9.34771 20.9985 9.25939 21.1427 9.17864 21.2856C9.01966 21.5702 8.8998 21.85 8.79634 22.1298C8.69287 22.4096 8.60708 22.6905 8.53263 22.9752C8.51371 23.0461 8.49604 23.1181 8.47964 23.1902L8.46702 23.2452L8.45062 23.3307L8.43548 23.4162L8.4317 23.4382L8.43043 23.4541L8.42665 23.4846C8.41782 23.5665 8.40646 23.6532 8.40268 23.7241C8.39763 23.7974 8.39006 23.8756 8.38627 23.9464L8.37492 24.1615L8.36735 24.3728C8.36104 24.5145 8.36104 24.6514 8.35852 24.7906C8.35094 25.3453 8.3623 25.8914 8.38501 26.4375C8.40898 26.9836 8.4481 27.526 8.49352 28.0672L8.53011 28.4728C8.54273 28.6084 8.55787 28.7428 8.57175 28.8772C8.58689 29.0116 8.59951 29.1472 8.61591 29.2816L8.66512 29.6847L8.69035 29.8863L8.71937 30.0879L8.77741 30.4898C8.81779 30.7574 8.86321 31.0237 8.90485 31.2913C8.95279 31.5576 8.99948 31.8227 9.04868 32.0878C9.10294 32.3517 9.15341 32.6168 9.21019 32.8807C9.26949 33.1434 9.325 33.4072 9.38683 33.6687C9.45118 33.9301 9.513 34.1916 9.58113 34.4518C9.65179 34.7108 9.71866 34.971 9.79184 35.2288L10.019 35.9997L10.2637 36.7632L10.5274 37.5182C10.6183 37.7687 10.7142 38.0167 10.8075 38.2647C10.853 38.3893 10.906 38.5115 10.9564 38.6337C11.0082 38.7558 11.0574 38.878 11.1104 39.0002L11.1886 39.1822C11.2151 39.2433 11.2441 39.3019 11.2706 39.3618C11.3261 39.4815 11.3829 39.6 11.4397 39.7197L11.5242 39.8981C11.552 39.958 11.5797 40.0166 11.6113 40.0753L11.7942 40.4234L11.9797 40.7692C12.044 40.8828 12.1109 40.994 12.1778 41.1064C12.2447 41.2188 12.3115 41.3299 12.3784 41.4399C12.444 41.5523 12.5172 41.6586 12.5891 41.7661C12.661 41.8736 12.7329 41.9799 12.8061 42.0862C12.8793 42.1925 12.9512 42.2987 13.0307 42.4001C13.1859 42.6042 13.3449 42.8045 13.5076 43C13.4181 42.7483 13.3234 42.5028 13.2263 42.2609C13.1758 42.1411 13.1329 42.0165 13.085 41.8944C13.0383 41.7722 12.9929 41.65 12.9449 41.5291C12.8982 41.4081 12.849 41.2884 12.8061 41.165C12.762 41.0428 12.7165 40.9207 12.6711 40.7997L12.5349 40.4369L12.4062 40.0704L12.2749 39.7063C12.2308 39.5854 12.1917 39.462 12.1488 39.3398C12.1071 39.2176 12.0667 39.0955 12.0226 38.9745C12.0011 38.9134 11.9797 38.8536 11.9595 38.7925L11.9002 38.608C11.8611 38.4846 11.8194 38.3637 11.7791 38.2403C11.7387 38.1181 11.6971 37.9959 11.6605 37.8725C11.5848 37.6258 11.5065 37.3802 11.4346 37.1334C10.858 35.1506 10.4543 33.1079 10.1981 31.0457C10.1691 30.7879 10.1363 30.5302 10.1098 30.2712L10.0719 29.8827L10.053 29.6884L10.0366 29.4942L10.0038 29.1057C9.99246 28.9762 9.98489 28.8467 9.9748 28.7172C9.96596 28.5877 9.95587 28.4582 9.9483 28.3287L9.92685 27.9402C9.90162 27.4222 9.88269 26.9029 9.88017 26.3862C9.87386 25.8694 9.87638 25.3526 9.89657 24.8444C9.90288 24.7173 9.90666 24.5903 9.91549 24.4657L9.92685 24.2787L9.94199 24.0967C9.94578 24.0344 9.95335 23.9807 9.95965 23.922C9.9647 23.8609 9.97227 23.8157 9.97984 23.7669L9.98237 23.7485L9.98363 23.74L9.98489 23.7375C9.98615 23.7339 9.98741 23.7302 9.98741 23.7253C9.98868 23.7217 9.98868 23.7168 9.98868 23.7131L9.99877 23.6728C10.0126 23.6166 10.0278 23.5616 10.0429 23.5054C10.1048 23.2831 10.1767 23.0619 10.2587 22.8542C10.3394 22.6466 10.4303 22.4499 10.5249 22.2886C10.5716 22.208 10.6208 22.1371 10.6624 22.0834C10.6839 22.0553 10.7028 22.0357 10.7205 22.0174C10.7356 22.0027 10.7495 21.9905 10.7545 21.9881L10.7848 21.9746C10.805 21.9661 10.8214 21.9575 10.8441 21.9478L10.9123 21.9197C10.9564 21.9013 11.0082 21.883 11.0561 21.8647L11.2088 21.8109C11.417 21.7413 11.6327 21.6729 11.8497 21.6081C11.9216 21.5861 11.9936 21.5666 12.0655 21.5458C12.4642 24.5316 13.9215 27.0605 14.9006 28.4728C15.399 29.1912 16.2494 29.1912 16.7478 28.4728C17.7054 27.0899 19.1236 24.6367 19.5564 21.734C19.6359 21.7596 19.7141 21.7853 19.7911 21.8109L19.9437 21.8647C19.9917 21.883 20.0434 21.9013 20.0876 21.9197L20.1557 21.9478C20.1784 21.9563 20.1948 21.9661 20.215 21.9746L20.2453 21.9881C20.2503 21.9905 20.2642 22.0027 20.2794 22.0174C20.2958 22.0357 20.316 22.0553 20.3374 22.0834C20.3803 22.1371 20.4283 22.208 20.4749 22.2886C20.5696 22.4499 20.6604 22.6466 20.7412 22.8542C20.8219 23.0619 20.8951 23.2831 20.9569 23.5054C20.9721 23.5616 20.9872 23.6166 21.0011 23.6728L21.0112 23.7131C21.0112 23.7168 21.0124 23.7217 21.0124 23.7253C21.0137 23.729 21.0137 23.7326 21.015 23.7375L21.0162 23.74L21.0175 23.7485L21.02 23.7669C21.0263 23.8157 21.0339 23.8609 21.0402 23.922C21.0452 23.9807 21.0528 24.0344 21.0579 24.0967L21.073 24.2787L21.0844 24.4657C21.0932 24.5903 21.097 24.7173 21.1033 24.8444C21.1235 25.3526 21.126 25.8694 21.1197 26.3862C21.1172 26.9029 21.0982 27.4222 21.073 27.9402L21.0515 28.3287C21.0452 28.4582 21.0339 28.5877 21.0251 28.7172C21.015 28.8467 21.0087 28.9762 20.996 29.1057L20.9632 29.4942L20.9468 29.6884L20.9279 29.8827L20.89 30.2712C20.8636 30.5302 20.8307 30.7879 20.8017 31.0457C20.5456 33.1079 20.1418 35.1506 19.5652 37.1334C19.492 37.3814 19.4138 37.6258 19.3394 37.8725C19.3028 37.9959 19.2612 38.1181 19.2208 38.2403C19.1804 38.3624 19.1388 38.4846 19.0996 38.608L19.0403 38.7925C19.0202 38.8536 18.9987 38.9134 18.9773 38.9745C18.9344 39.0955 18.8927 39.2176 18.8511 39.3398C18.8095 39.462 18.7691 39.5854 18.7249 39.7063L18.5937 40.0704L18.465 40.4369L18.3287 40.7997C18.2833 40.9207 18.2379 41.0428 18.1937 41.165C18.1508 41.2884 18.1016 41.4069 18.0549 41.5291C18.007 41.65 17.9616 41.7722 17.9149 41.8944C17.8682 42.0165 17.8253 42.1411 17.7736 42.2609C17.6764 42.5028 17.5818 42.7496 17.4922 43C17.655 42.8045 17.8139 42.6042 17.9691 42.4001C18.0474 42.2987 18.1205 42.1925 18.1937 42.0862C18.2669 41.9799 18.3401 41.8736 18.4107 41.7661C18.4827 41.6586 18.5558 41.5523 18.6215 41.4399C18.6896 41.3299 18.7565 41.2175 18.8221 41.1064C18.8889 40.994 18.9558 40.8828 19.0202 40.7692L19.2056 40.4234L19.3886 40.0753C19.4201 40.0178 19.4479 39.958 19.4756 39.8981L19.5602 39.7197C19.617 39.6012 19.6737 39.4827 19.7293 39.3618C19.757 39.3019 19.786 39.2421 19.8113 39.1822L19.8895 39.0002C19.9412 38.8792 19.9917 38.7558 20.0434 38.6337C20.0939 38.5115 20.1469 38.3893 20.1923 38.2647C20.2857 38.0155 20.3816 37.7687 20.4724 37.5182L20.7361 36.7632L20.9809 35.9997L21.208 35.2288C21.2812 34.971 21.3481 34.7108 21.4187 34.4518C21.4868 34.1916 21.5487 33.9301 21.613 33.6687C21.6748 33.4072 21.7304 33.1434 21.7897 32.8807C21.8464 32.6168 21.8969 32.3529 21.9512 32.0878C22.0016 31.8227 22.0483 31.5564 22.095 31.2913C22.1379 31.0249 22.1833 30.7574 22.2224 30.4898L22.2805 30.0879L22.3095 29.8863L22.3347 29.6847L22.3839 29.2816C22.4003 29.1472 22.413 29.0116 22.4281 28.8772C22.442 28.7428 22.4584 28.6072 22.4697 28.4728L22.5076 28.0672C22.5543 27.526 22.5934 26.9824 22.6161 26.4375C22.6376 25.8914 22.6489 25.3441 22.6426 24.7906C22.6401 24.6514 22.6388 24.5133 22.6338 24.3728L22.6262 24.1615L22.6148 23.9464C22.6123 23.8768 22.6047 23.7986 22.5984 23.7241C22.5934 23.6532 22.5833 23.5665 22.5745 23.4846L22.5707 23.4541L22.5694 23.4382L22.5656 23.4162L22.5505 23.3307L22.5341 23.2452L22.5215 23.1902C22.5051 23.1181 22.4874 23.0461 22.4685 22.9752C22.394 22.6893 22.3082 22.4096 22.2048 22.1298C22.1 21.85 21.9814 21.5702 21.8225 21.2856C21.743 21.1439 21.6534 20.9997 21.5398 20.8543C21.4856 20.7823 21.42 20.709 21.3518 20.6369C21.2787 20.5648 21.2017 20.4927 21.1083 20.4255C21.0869 20.4084 21.0604 20.3925 21.0351 20.3754C21.0099 20.3595 20.9859 20.3437 20.9569 20.3278L20.9153 20.3058L20.8951 20.2948L20.8774 20.2862L20.8257 20.2618C20.7916 20.2459 20.755 20.2288 20.7235 20.2154L20.6276 20.1751C20.5633 20.1482 20.504 20.1262 20.4409 20.1018L20.2604 20.037C20.0661 19.9686 19.8756 19.91 19.6851 19.8525C19.6851 19.7939 19.6851 19.734 19.6838 19.6778C19.8731 19.6632 20.0573 19.662 20.2251 19.6803C20.2503 19.6815 20.2731 19.6852 20.2958 19.6901L20.3652 19.7011C20.4106 19.7096 20.4497 19.7218 20.4926 19.7304L20.5481 19.7499L20.5759 19.7585C20.5847 19.7609 20.5961 19.7646 20.5961 19.7658C20.5986 19.767 20.6011 19.7695 20.6049 19.7695L20.6099 19.7707C20.6112 19.7707 20.6175 19.7756 20.6213 19.7768C20.6377 19.7866 20.6554 19.7963 20.6718 19.8061C20.7147 19.8367 20.755 19.8599 20.803 19.8965L20.8736 19.9478L20.9468 20.004C20.9948 20.0407 21.0452 20.081 21.0957 20.1213C21.1449 20.1604 21.1954 20.2032 21.2459 20.2447C21.6496 20.5807 22.0559 20.9508 22.4596 21.3247C22.8634 21.6997 23.2672 22.0785 23.6709 22.4621C24.0747 22.8457 24.4759 23.233 24.8885 23.6203C24.9919 23.7168 25.0967 23.8133 25.2052 23.9122L25.2885 23.9868C25.3162 24.0112 25.344 24.0368 25.3768 24.0637C25.4272 24.1089 25.5357 24.1944 25.5648 24.2164C25.6569 24.2861 25.7578 24.3716 25.8562 24.4559L26.0064 24.5866L26.1565 24.721C26.3559 24.9018 26.554 25.0875 26.7483 25.2769C26.8454 25.3709 26.9413 25.4662 27.036 25.5615L27.1747 25.7045C27.2189 25.7509 27.2656 25.7998 27.306 25.8462L27.3678 25.9146L27.3829 25.9317C27.3829 25.9378 27.3842 25.9427 27.3842 25.9488C27.3867 25.9793 27.3892 26.0099 27.3905 26.0429C27.393 26.0746 27.3943 26.1088 27.3955 26.1418C27.4056 26.413 27.4019 26.7026 27.3943 26.9921C27.3766 27.5724 27.3388 28.1588 27.287 28.7453C27.2618 29.0385 27.2315 29.3317 27.1987 29.6249C27.1672 29.9181 27.1318 30.2113 27.094 30.5033C26.9413 31.6737 26.7394 32.8392 26.4884 33.99C26.236 35.1408 25.9458 36.2819 25.6178 37.4132C25.4537 37.9788 25.2784 38.5408 25.0941 39.1016C25.0008 39.3813 24.9061 39.6623 24.8077 39.9409C24.7598 40.0814 24.7093 40.2206 24.6588 40.3599C24.6109 40.5004 24.5566 40.6385 24.5087 40.7802C25.1534 39.815 25.6909 38.757 26.154 37.66C26.6183 36.5629 26.9994 35.4194 27.3198 34.2563C27.6391 33.0921 27.9091 31.9107 28.1299 30.7146C28.1854 30.4153 28.2371 30.116 28.2851 29.8142C28.333 29.5137 28.3772 29.2107 28.4175 28.9077C28.4983 28.3018 28.5664 27.6922 28.6119 27.0715C28.6346 26.76 28.6522 26.4497 28.6548 26.1186C28.6548 26.0771 28.6548 26.0355 28.6548 25.9928C28.6548 25.9512 28.6535 25.9073 28.6522 25.8621C28.6522 25.8401 28.651 25.8169 28.6497 25.7936L28.6459 25.7216L28.6396 25.6434L28.6283 25.5518C28.6257 25.5346 28.6219 25.5114 28.6182 25.4919L28.6119 25.4613L28.6093 25.4467L28.603 25.4223C28.5942 25.3893 28.5854 25.3563 28.574 25.3245C28.5715 25.3147 28.5614 25.2915 28.5551 25.2756C28.5475 25.2585 28.5399 25.2402 28.5311 25.2243C28.5223 25.2072 28.5134 25.1901 28.5046 25.1742C28.497 25.162 28.4806 25.1339 28.4806 25.1339L28.4327 25.0643L28.4087 25.0301L28.3961 25.013L28.386 24.9995L28.3053 24.8957L28.2295 24.8029C28.1778 24.7405 28.1299 24.6868 28.0794 24.6269L27.9305 24.4608C27.8321 24.352 27.7324 24.2445 27.6327 24.1395C27.4334 23.9281 27.2328 23.7229 27.0259 23.5201L26.8694 23.3686L26.7104 23.2171C26.6019 23.1157 26.4947 23.0167 26.371 22.9141C26.2928 22.8494 26.2941 22.8481 26.2411 22.7993L26.1742 22.7357L26.1048 22.6673C26.0102 22.5745 25.913 22.4767 25.8171 22.379L24.6412 21.1817C24.2463 20.781 23.8501 20.3779 23.4451 19.982C23.0388 19.5862 22.63 19.1941 22.1896 18.808C22.1341 18.7604 22.0799 18.7115 22.0218 18.6638C21.965 18.6162 21.9083 18.5673 21.8477 18.5197L21.7581 18.4476L21.6622 18.3755C21.6017 18.3279 21.5272 18.2778 21.4578 18.2301L21.3342 18.1544C21.3228 18.1483 21.3153 18.1422 21.3014 18.1348L21.261 18.1141L21.179 18.0738C21.1487 18.0591 21.1285 18.0518 21.1071 18.0432L21.0402 18.0188C20.996 18.0029 20.9506 17.9858 20.9065 17.9711C20.8207 17.9479 20.7323 17.9223 20.6478 17.9052L20.5216 17.882C20.48 17.8746 20.4371 17.8673 20.3967 17.8636C20.1406 17.8306 19.8945 17.8282 19.6561 17.8416V17.6181C19.6952 17.6058 19.7356 17.5949 19.7747 17.5826C20.0447 17.4996 20.2958 17.4202 20.5292 17.3554C20.5582 17.3676 20.5935 17.3823 20.6339 17.4018C20.6819 17.4238 20.7336 17.4519 20.7866 17.48C20.9998 17.5961 21.2282 17.7415 21.4566 17.8881C21.9146 18.1862 22.3764 18.5123 22.8382 18.8434L24.2311 19.8538C24.4671 20.0236 24.7017 20.1934 24.9554 20.3644C25.0197 20.4072 25.084 20.4512 25.1547 20.4952C25.19 20.5171 25.2279 20.5404 25.2695 20.5648C25.2985 20.5831 25.3919 20.632 25.4651 20.6625C25.5055 20.6809 25.537 20.6894 25.5736 20.7004C25.6089 20.7114 25.6455 20.7212 25.6808 20.7309C25.7452 20.7432 25.8121 20.7554 25.8739 20.7615C25.9319 20.7652 25.9938 20.77 26.0493 20.7688C26.1023 20.7676 26.1578 20.7664 26.2095 20.7615C26.4152 20.7444 26.588 20.7041 26.7546 20.6576C26.8391 20.6344 26.9161 20.6076 26.9943 20.5819C27.07 20.5538 27.1482 20.5269 27.2202 20.4964C27.5167 20.3779 27.7905 20.2435 28.0567 20.1042C28.5891 19.8244 29.0875 19.5129 29.5746 19.2063L29.9367 18.9778L30.1133 18.8666L30.1348 18.8532L30.1613 18.8361L30.2004 18.8092C30.2256 18.7909 30.2508 18.7713 30.2761 18.7518L30.3127 18.7213C30.324 18.7115 30.3316 18.7029 30.3417 18.6932C30.3783 18.6553 30.4149 18.615 30.4489 18.5734C30.478 18.5356 30.5007 18.5014 30.5259 18.4635C30.5385 18.4452 30.5511 18.4256 30.5612 18.4073L30.5877 18.3572C30.6054 18.3242 30.6231 18.29 30.6395 18.257C30.6533 18.2265 30.666 18.1971 30.6786 18.1666L30.6975 18.1214C30.7038 18.1055 30.7101 18.0909 30.7139 18.0774C30.7328 18.0224 30.7543 17.9638 30.7682 17.9125C30.782 17.8612 30.7984 17.8074 30.8111 17.7573C30.8615 17.5558 30.8893 17.3725 30.9145 17.1917C30.9612 16.8325 30.9827 16.4917 30.9927 16.1557C31.0028 15.8173 31.0016 15.4874 30.994 15.16Z"/>
    </symbol>
    <symbol id="libido" viewBox="0 0 206 206">
        <path d="M149.556 0.0140381V15.9901H178.018L151.057 43.1973C141.421 35.921 129.678 31.9787 117.602 31.9661C102.664 31.9661 88.7164 37.8772 78.1559 48.4454C72.9358 53.6023 68.7914 59.7441 65.9631 66.5148C63.1348 73.2855 61.6788 80.5503 61.6796 87.8879C61.6803 95.2255 63.1378 102.49 65.9675 109.26C68.7971 116.03 72.9427 122.171 78.1638 127.327C85.1137 134.277 93.3896 139.269 102.624 141.801C103.535 141.106 104.557 140.379 105.372 139.565C108.72 136.159 111.126 131.942 112.354 127.327C103.657 126.253 95.5711 122.296 89.3875 116.088C81.8465 108.555 77.6606 98.5542 77.6606 87.8822C77.6606 77.2102 81.8545 67.2252 89.4034 59.6845C96.9284 52.1199 106.93 47.9421 117.602 47.9421C128.275 47.9421 138.268 52.1358 145.801 59.6845C149.528 63.3728 152.486 67.7647 154.502 72.6053C156.517 77.4459 157.552 82.6387 157.544 87.8822C157.544 94.7919 155.587 101.222 152.304 107.101C153.07 111.223 153.55 115.553 153.55 119.834C153.55 123.812 153.214 127.742 152.551 131.577C154.149 130.275 155.571 128.797 157.049 127.327C167.609 116.751 173.521 102.82 173.521 87.8822C173.521 75.6606 169.494 64.046 162.289 54.4284L189.497 27.4768V55.9302H205.474V0.0140381H149.556ZM100.627 65.9152C99.7164 66.6101 98.6938 67.337 97.879 68.1518C94.4281 71.6186 92.1754 75.8203 90.8972 80.3974C99.6045 81.5158 107.553 85.3181 113.864 91.6286C121.413 99.1613 125.607 109.162 125.607 119.826C125.607 130.49 121.413 140.483 113.864 148.024C106.323 155.597 96.3213 159.774 85.6489 159.774C74.9765 159.774 64.9831 155.581 57.4501 148.032C53.72 144.346 50.7607 139.954 48.7446 135.113C46.7286 130.272 45.6961 125.078 45.7073 119.834C45.7073 112.925 47.6644 106.494 50.9476 100.615C50.1455 96.4176 49.7284 92.1556 49.7014 87.8822C49.7014 83.9042 50.0369 79.9741 50.7 76.1398C49.1023 77.4419 47.6884 78.9197 46.2026 80.3974C35.658 90.9496 29.7306 104.897 29.7306 119.834C29.7306 132.056 33.7567 143.671 40.9622 153.288L27.4939 166.764L11.5172 150.788L0.0140381 162.019L15.9907 177.995L0.0140381 193.971L11.5172 205.474L27.4939 189.498L43.4705 205.474L54.6941 193.971L38.7175 177.995L52.2018 164.527C61.829 171.815 73.5744 175.756 85.6489 175.75C100.587 175.75 114.535 169.839 125.095 159.271C135.656 148.719 141.567 134.772 141.567 119.834C141.567 104.897 135.656 90.9656 125.087 80.3895C118.137 73.4399 109.862 68.4474 100.627 65.9152Z"/>
    </symbol>
    <symbol id="clock" viewBox="0 0 234 235">
        <path d="M116.541 0C52.1702 0 0 52.5996 0 117.5C0 182.4 52.1702 235 116.541 235C180.911 235 233.082 182.4 233.082 117.5C233.082 52.5996 180.911 0 116.541 0ZM116.541 215.401C62.9138 215.401 19.4386 171.568 19.4386 117.5C19.4386 63.4316 62.9138 19.5986 116.541 19.5986C170.168 19.5986 213.643 63.4316 213.643 117.5C213.643 171.568 170.168 215.401 116.541 215.401ZM126.237 39.1514H106.799V117.5L150.502 161.562L165.069 146.875L126.237 107.724V39.1514Z"/>
    </symbol>
    <symbol id="recovery" viewBox="0 0 247 254">
        <path d="M230.322 157.039C229.908 158.095 229.463 159.237 228.997 160.447C228.776 161.058 228.502 161.671 228.217 162.301C227.933 162.932 227.644 163.581 227.347 164.241C224.919 169.534 221.483 175.745 216.682 182.187C211.815 188.569 205.612 195.207 197.812 201.068C193.919 203.993 189.679 206.759 185.093 209.229C180.489 211.662 175.559 213.802 170.355 215.529C159.964 218.994 148.465 220.765 136.753 220.216C135.295 220.112 133.832 220.006 132.356 219.898C130.894 219.72 129.433 219.543 127.958 219.363C126.524 219.152 125.149 218.874 123.739 218.642L123.212 218.55C123.035 218.519 122.822 218.468 122.633 218.428L121.446 218.164C120.655 217.99 119.864 217.809 119.073 217.636L118.476 217.503L118.182 217.434C118.087 217.414 118.474 217.483 118.247 217.435L118.11 217.399L117.031 217.092L114.871 216.484L113.791 216.184L112.724 215.82L110.595 215.1L109.526 214.743C109.172 214.615 108.828 214.47 108.476 214.33L106.383 213.5C104.973 212.985 103.626 212.299 102.255 211.693C91.3554 206.614 81.4767 199.259 73.5341 190.333C65.5875 181.427 59.6162 170.952 55.972 160.075C52.3103 149.187 50.9968 137.921 51.7517 127.29C51.8685 125.961 51.9107 124.641 52.1219 123.331C52.2073 122.679 52.2927 122.026 52.3717 121.372L52.4922 120.398L52.6583 119.519C52.7681 118.937 52.8703 118.36 52.9788 117.785L53.1283 116.922L53.2089 116.479L53.3349 115.914C53.4996 115.166 53.6705 114.42 53.8351 113.672L54.0846 112.554L54.2093 111.996L54.2679 111.719L54.2971 111.58C54.3264 111.442 54.1773 112.272 54.2561 111.867C55.5618 106.935 57.263 102.278 59.2699 97.948C62.474 90.9713 66.535 84.8859 70.9306 79.7064C63.9013 68.6068 56.6485 57.0719 49.7208 46.0201C48.1761 47.7912 46.6558 49.6332 45.1762 51.5626C37.8465 61.0734 31.3663 72.5062 27.0425 85.401C24.8663 91.8388 23.2049 98.609 22.1533 105.574C22.2122 105.264 22.0444 106.182 22.0537 106.138L22.037 106.279L22.0037 106.561L21.9369 107.126L21.8084 108.263C21.7206 109.02 21.6315 109.784 21.5437 110.541L21.4756 111.112L21.4137 111.809L21.2959 113.237C21.2261 114.189 21.1488 115.146 21.0777 116.104L20.9787 117.536L20.9487 118.891C20.9287 119.795 20.9101 120.691 20.8888 121.601C20.816 123.407 20.9247 125.225 20.9665 127.049C21.4907 141.613 24.9211 156.456 31.2084 170.101C37.4678 183.754 46.5311 196.211 57.6254 206.276C68.7094 216.359 81.778 224.02 95.467 228.716C97.1907 229.271 98.8781 229.904 100.619 230.344L103.209 231.063C103.638 231.18 104.071 231.311 104.502 231.415L105.807 231.711C106.673 231.907 107.547 232.098 108.413 232.294L109.719 232.584L111.026 232.808C111.895 232.958 112.765 233.103 113.634 233.254L114.935 233.476L115.461 233.568L115.762 233.605L116.366 233.673C117.175 233.766 117.976 233.863 118.779 233.953L119.986 234.09C120.192 234.114 120.377 234.14 120.597 234.154L121.27 234.204C123.066 234.327 124.873 234.486 126.626 234.56C128.349 234.589 130.07 234.631 131.77 234.642C133.478 234.588 135.173 234.532 136.868 234.476C150.387 233.692 163.105 230.291 174.177 225.254C179.718 222.743 184.863 219.833 189.576 216.667C194.271 213.464 198.519 210.009 202.341 206.451C209.996 199.323 215.766 191.653 220.116 184.511C224.401 177.302 227.234 170.589 229.134 164.961C229.369 164.254 229.594 163.565 229.813 162.902C230.038 162.239 230.242 161.585 230.41 160.95C230.758 159.675 231.083 158.482 231.389 157.376C231.922 155.134 232.331 153.229 232.652 151.679C233.173 148.56 233.451 146.903 233.451 146.903C233.451 146.903 233.003 148.524 232.164 151.562C231.678 153.051 231.078 154.897 230.322 157.039Z"/>
        <path d="M109.027 8.97718C108.733 9.05978 108.413 9.14334 108.07 9.2418C107.622 9.37065 107.145 9.51307 106.641 9.65646C105.637 9.95715 104.482 10.2915 103.278 10.6683C102.157 11.056 100.937 11.4755 99.6127 11.9253C98.303 12.3981 96.9028 12.9569 95.4141 13.5299C93.9376 14.1383 92.3759 14.8077 90.738 15.5267C84.2256 18.4964 76.5749 22.6525 68.6328 28.5289C67.8365 29.1233 67.0362 29.7366 66.2395 30.3639C77.1192 39.5157 88.5349 49.1491 99.4063 58.3715C102.069 57.1918 104.561 56.2588 106.816 55.5125C107.92 55.1738 108.961 54.8483 109.949 54.5638C110.942 54.3134 111.866 54.0485 112.732 53.8371C113.602 53.6397 114.403 53.4604 115.142 53.2944C115.784 53.1802 116.364 53.0793 116.884 52.9853C117.138 52.9338 117.383 52.8936 117.609 52.8494C117.943 52.795 118.263 52.7442 118.55 52.6931C119.142 52.5949 119.639 52.5157 120.047 52.4508C120.851 52.3183 121.267 52.2484 121.267 52.2484L111.679 8.24907C111.679 8.24907 111.274 8.36074 110.486 8.57546C110.095 8.68349 109.606 8.81696 109.027 8.97718Z"/>
        <path d="M151.771 111.355C159.966 120.551 159.155 134.648 149.954 142.843C140.759 151.039 126.663 150.229 118.469 141.027C110.281 131.832 38.544 15.7567 38.544 15.7567C38.544 15.7567 143.577 102.159 151.771 111.355Z"/>
    </symbol>
    <symbol id="genome" viewBox="0 0 158 283">
        <path d="M67.8273 164.432C63.8181 161.483 59.7433 158.468 55.6027 155.387L46.2042 148.439C39.2375 153.748 32.0079 159.844 24.4497 167.447C8.08455 183.898 0.986402 202.251 1.11785 219.03C1.44647 247.541 18.7975 268.318 29.3133 279.198C31.8108 281.689 35.0312 283 38.3174 283C41.6036 283 44.824 281.689 47.3215 279.198C52.3165 274.152 52.3165 265.959 47.3215 260.912C38.646 252.26 26.29 235.415 26.6186 219.03C26.75 209.264 29.9705 198.646 42.5237 185.734C51.0678 176.82 59.4804 170.2 67.8273 164.432ZM91.5535 118.879C99.046 124.385 106.341 129.825 113.111 135.069C119.683 130.153 126.387 124.582 133.288 117.634C150.113 100.658 157.606 82.2406 157.54 65.2648C157.211 36.3602 138.612 15.7796 127.044 3.78513C122.049 -1.26171 114.031 -1.26171 109.036 3.78513C104.041 8.83197 104.041 17.0249 109.036 22.0717C119.617 32.5587 132.368 49.1412 132.039 65.2648C131.973 74.8342 128.49 85.7144 115.214 99.4129C107.59 107.344 99.7032 113.374 91.5535 118.879ZM128.096 163.973C112.979 149.488 88.6616 132.447 63.7524 113.832C51.2649 104.525 41.2749 95.8736 34.8998 87.4185C28.5246 78.8979 25.567 71.2948 25.5013 61.4633C25.5013 58.1206 25.8956 54.3846 26.8158 50.3209C28.2617 43.3078 23.9239 36.3602 17.0887 34.8527C10.2534 33.2797 3.41817 37.6711 1.90653 44.6842C0.657784 50.3865 0.000548182 55.9577 0.000548182 61.3978C-0.0651754 77.3904 5.78422 91.5477 14.7226 103.149C23.661 114.881 35.3598 124.647 48.636 134.544C73.8081 153.29 98.1258 170.593 110.613 182.653C118.434 189.797 133.025 208.018 132.565 225.256C132.565 228.271 132.171 231.352 131.316 234.629C129.476 241.511 133.485 248.59 140.32 250.49C141.438 250.753 142.555 250.949 143.672 250.949C149.259 250.949 154.385 247.148 155.897 241.38C157.343 235.94 158 230.565 158 225.322C157.606 194.91 137.626 173.411 128.096 163.973Z"/>
        <path d="M46.6306 56.6087C47.2213 56.6087 47.7464 56.5432 48.3371 56.3468L98.1543 42.9231C101.699 42.0063 103.733 38.3394 102.814 34.8689C101.896 31.3328 98.22 29.3029 94.7413 30.2197L44.9241 43.6434C41.4454 44.5601 39.3451 48.2271 40.264 51.6976C41.0516 54.6443 43.7426 56.6087 46.6306 56.6087ZM57.0666 188.423C53.4567 189.012 51.0282 192.352 51.5532 195.953C52.0783 199.228 54.835 201.519 58.0511 201.519C58.3793 201.519 58.7075 201.519 59.1013 201.454L91.6564 196.412C95.2664 195.888 97.6949 192.483 97.1698 188.881C96.6447 185.28 93.2317 182.857 89.6217 183.381L57.0666 188.423ZM119.814 235.701C118.961 232.165 115.416 230.004 111.872 230.855L61.2016 243.035C57.6573 243.886 55.4914 247.422 56.3446 250.958C57.0666 253.97 59.7577 256 62.7769 256C63.302 256 63.8271 255.935 64.3521 255.804L115.023 243.624C118.501 242.773 120.667 239.237 119.814 235.701ZM43.3488 76.3187C43.9395 79.4618 46.6962 81.6227 49.7811 81.6227C50.1749 81.6227 50.6343 81.5572 51.0282 81.4917L113.513 69.5741C117.123 68.9193 119.42 65.4487 118.764 61.9127C118.042 58.3112 114.629 56.0194 111.019 56.6742L48.534 68.5918C44.9897 69.2467 42.6925 72.7172 43.3488 76.3187ZM108.262 91.5759C107.868 87.9744 104.587 85.3551 100.977 85.748L69.0122 89.3495C65.4023 89.7424 62.7769 93.0164 63.1707 96.6179C63.5645 99.9575 66.4525 102.446 69.7342 102.446C69.9968 102.446 70.1937 102.446 70.4562 102.38L102.421 98.7788C106.096 98.4514 108.656 95.1773 108.262 91.5759ZM116.335 209.966C115.613 206.43 112.069 204.139 108.525 204.924L45.2522 218.283C41.7079 219.068 39.4107 222.539 40.1327 226.075C40.789 229.153 43.5457 231.248 46.565 231.248C47.0244 231.248 47.4838 231.182 47.9433 231.117L111.216 217.759C114.826 216.973 117.123 213.502 116.335 209.966Z"/>
    </symbol>
    <symbol id="capsule" viewBox="0 0 48 45">
        <path d="M40.08 44C36.96 44 34.21 41.9 33.39 38.9L30.06 26.73C29.05 23.05 31.23 19.23 34.91 18.22C35.5 18.06 36.12 17.98 36.73 17.98C39.85 17.98 42.6 20.08 43.42 23.08L46.75 35.25C47.24 37.03 47 38.9 46.08 40.51C45.16 42.12 43.68 43.28 41.9 43.76C41.31 43.92 40.69 44 40.08 44Z"
              stroke="#D93244" stroke-width="2" stroke-miterlimit="10"/>
        <path d="M35.0001 14.0001C36.1701 11.0001 36.7701 7.29009 35.6901 5.33009C34.6101 3.37009 32.8401 1.95009 30.7101 1.33009C30.0901 1.15009 29.4601 1.04009 28.8201 1.01009C24.9901 0.810091 21.4301 3.34009 20.3601 7.02009L17.7101 16.1201"
              stroke="#D93244" stroke-width="2" stroke-miterlimit="10"/>
        <path d="M20.36 40.78C18.53 40.78 16.75 40.14 15.36 38.98L3.83004 29.4C2.22004 28.06 1.23004 26.18 1.04004 24.09C0.840037 22 1.47004 19.96 2.80004 18.35C4.29004 16.55 6.49004 15.52 8.85004 15.52C10.68 15.52 12.45 16.16 13.85 17.32L25.38 26.89C26.99 28.23 27.98 30.11 28.17 32.2C28.36 34.29 27.74 36.33 26.4 37.94C24.91 39.75 22.71 40.78 20.36 40.78Z"
              stroke="#D93244" stroke-width="2" stroke-miterlimit="10"/>
        <path d="M9.42004 33.8503L19.06 22.2803" stroke="#D93244" stroke-width="2" stroke-miterlimit="10"/>
        <path d="M32 32.27L45 29.27" stroke="#D93244" stroke-width="2" stroke-miterlimit="10"/>
        <path d="M6.0101 27.1003C4.1301 25.2203 4.1301 22.1603 6.0101 20.2803" stroke="#D93244" stroke-width="2"
              stroke-miterlimit="10"/>
        <path d="M33 26.27C33 23.51 35.24 21.27 38 21.27" stroke="#D93244" stroke-width="2" stroke-miterlimit="10"/>
        <path d="M19 13L30 17" stroke="#D93244" stroke-width="2" stroke-miterlimit="10"/>
        <path d="M24.28 8.11996C24.75 5.97996 26.86 4.61996 29 5.08996" stroke="#D93244" stroke-width="2"
              stroke-miterlimit="10"/>
    </symbol>
    <symbol id="gel" viewBox="0 0 25 48">
        <path d="M16.97 38H7.97C5.76 38 3.09 36.91 2.97 35L1 4.2V1H23.93V4.2L21.97 35C21.85 36.91 19.18 38 16.97 38Z"
              stroke="#D93244" stroke-width="2" stroke-miterlimit="10"/>
        <path d="M17.97 38H6.96997V45C6.96997 46.1 7.86997 47 8.96997 47H15.97C17.07 47 17.97 46.1 17.97 45V38Z"
              stroke="#D93244" stroke-width="2" stroke-miterlimit="10"/>
        <path d="M0.969971 7H23.97" stroke="#D93244" stroke-width="2" stroke-miterlimit="10"/>
        <path d="M21.97 29H2.96997" stroke="#D93244" stroke-width="2" stroke-miterlimit="10"/>
    </symbol>
    <symbol id="thumb-up" viewBox="0 0 25 26">
        <path d="M5.92894 9.22136L5.08264 8.68866L4.92894 8.93284V9.22136H5.92894ZM10.3607 2.18061L11.207 2.71331L11.207 2.71331L10.3607 2.18061ZM14.7421 4.68858L13.8458 4.24526V4.24526L14.7421 4.68858ZM12.5004 9.22136L11.604 8.77805C11.4507 9.08801 11.4684 9.45518 11.6509 9.74894C11.8333 10.0427 12.1546 10.2214 12.5004 10.2214V9.22136ZM24.0004 17.5259L24.8035 18.1217L25.0004 17.8563V17.5259H24.0004ZM20.0575 22.8408L20.8606 23.4366L20.0575 22.8408ZM13.7844 1.36351L14.303 0.508513V0.508513L13.7844 1.36351ZM0.000366211 8.39091V25H2.00037V8.39091H0.000366211ZM6.77524 9.75406L11.207 2.71331L9.51442 1.64791L5.08264 8.68866L6.77524 9.75406ZM13.8458 4.24526L11.604 8.77805L13.3967 9.66467L15.6385 5.13189L13.8458 4.24526ZM12.5004 10.2214H20.7147V8.22136H12.5004V10.2214ZM23.0004 12.5432V17.5259H25.0004V12.5432H23.0004ZM23.1972 16.9301L19.2544 22.245L20.8606 23.4366L24.8035 18.1217L23.1972 16.9301ZM17.4289 23.1695H9.21465V25.1695H17.4289V23.1695ZM6.92894 20.8477V9.22136H4.92894V20.8477H6.92894ZM20.7147 10.2214C21.9667 10.2214 23.0004 11.2505 23.0004 12.5432H25.0004C25.0004 10.1666 23.0919 8.22136 20.7147 8.22136V10.2214ZM9.21465 23.1695C7.96256 23.1695 6.92894 22.1404 6.92894 20.8477H4.92894C4.92894 23.2243 6.83744 25.1695 9.21465 25.1695V23.1695ZM13.2658 2.2185C13.9474 2.63197 14.2069 3.51503 13.8458 4.24526L15.6385 5.13189C16.4555 3.47992 15.8804 1.46535 14.303 0.508513L13.2658 2.2185ZM19.2544 22.245C18.8209 22.8293 18.1439 23.1695 17.4289 23.1695V25.1695C18.7824 25.1695 20.0531 24.5252 20.8606 23.4366L19.2544 22.245ZM11.207 2.71331C11.6522 2.00602 12.5646 1.7932 13.2658 2.2185L14.303 0.508513C12.6608 -0.487627 10.5364 0.0243446 9.51442 1.64791L11.207 2.71331Z"/>
    </symbol>
    <symbol id="watch" viewBox="0 0 27 27">
        <path d="M13.5003 13.4999H12.5003C12.5003 13.7651 12.6057 14.0195 12.7932 14.207L13.5003 13.4999ZM13.5003 24.1666C7.60931 24.1666 2.83368 19.391 2.83368 13.4999H0.833679C0.833679 20.4955 6.50474 26.1666 13.5003 26.1666V24.1666ZM24.167 13.4999C24.167 19.391 19.3914 24.1666 13.5003 24.1666V26.1666C20.496 26.1666 26.167 20.4955 26.167 13.4999H24.167ZM13.5003 2.83325C19.3914 2.83325 24.167 7.60888 24.167 13.4999H26.167C26.167 6.50431 20.496 0.833252 13.5003 0.833252V2.83325ZM13.5003 0.833252C6.50474 0.833252 0.833679 6.50431 0.833679 13.4999H2.83368C2.83368 7.60888 7.60931 2.83325 13.5003 2.83325V0.833252ZM12.5003 5.99992V13.4999H14.5003V5.99992H12.5003ZM12.7932 14.207L17.7932 19.207L19.2075 17.7928L14.2075 12.7928L12.7932 14.207Z"/>
    </symbol>
    <symbol id="chart" viewBox="0 0 25 24">
        <path d="M1.76703 22.2333H0.767029V23.2333H1.76703V22.2333ZM3.8337 17.6333V18.6333H5.8337V17.6333H3.8337ZM24.2337 3.83333V2.83333H22.2337V3.83333H24.2337ZM0.767029 0V22.2333H2.76703V0H0.767029ZM1.76703 23.2333H24.0004V21.2333H1.76703V23.2333ZM5.8337 17.6333C5.8337 15.4245 6.20459 13.2735 6.89751 11.7145C7.6055 10.1215 8.49663 9.43333 9.43369 9.43333V7.43333C7.30409 7.43333 5.89523 9.04517 5.06988 10.9022C4.22947 12.7931 3.8337 15.2422 3.8337 17.6333H5.8337ZM9.43369 9.43333C9.84188 9.43333 10.28 9.63188 10.8158 10.1265C11.3587 10.6275 11.8777 11.3143 12.467 12.1C13.0277 12.8476 13.6587 13.6942 14.3617 14.3431C15.0717 14.9985 15.9752 15.5667 17.1004 15.5667V13.5667C16.6922 13.5667 16.254 13.3681 15.7182 12.8735C15.1754 12.3725 14.6563 11.6857 14.067 10.9C13.5063 10.1524 12.8754 9.3058 12.1724 8.65686C11.4624 8.00146 10.5588 7.43333 9.43369 7.43333V9.43333ZM17.1004 15.5667C19.08 15.5667 20.8922 14.3329 22.1625 12.3215C23.4375 10.3027 24.2337 7.42153 24.2337 3.83333H22.2337C22.2337 7.14514 21.4965 9.63062 20.4715 11.2535C19.4419 12.8838 18.1874 13.5667 17.1004 13.5667V15.5667Z"/>
    </symbol>
    <symbol id="gender" viewBox="0 0 28 28">
        <path d="M20.3754 0.1875V2.3125H24.1611L20.5751 5.93138C19.2934 4.96355 17.7315 4.43918 16.1254 4.4375C14.1385 4.4375 12.2834 5.22375 10.8788 6.62944C10.1845 7.31537 9.63323 8.13231 9.25704 9.03288C8.88086 9.93346 8.6872 10.8998 8.6873 11.8758C8.6874 12.8517 8.88125 13.818 9.25762 14.7185C9.63399 15.619 10.1854 16.4358 10.8798 17.1216C11.8042 18.046 12.9049 18.7101 14.1332 19.0469C14.2543 18.9544 14.3903 18.8577 14.4987 18.7494C14.944 18.2964 15.264 17.7355 15.4273 17.1216C14.2706 16.9788 13.1951 16.4525 12.3726 15.6267C11.3696 14.6248 10.8129 13.2945 10.8129 11.875C10.8129 10.4555 11.3707 9.12738 12.3748 8.12438C13.3756 7.11819 14.7059 6.5625 16.1254 6.5625C17.5449 6.5625 18.8741 7.12031 19.876 8.12438C20.3718 8.61495 20.7651 9.19913 21.0332 9.84299C21.3014 10.4868 21.4389 11.1775 21.4379 11.875C21.4379 12.7941 21.1776 13.6494 20.7409 14.4314C20.8429 14.9796 20.9066 15.5555 20.9066 16.125C20.9066 16.6541 20.862 17.1769 20.7738 17.6869C20.9863 17.5137 21.1754 17.3171 21.372 17.1216C22.7766 15.7149 23.5629 13.8619 23.5629 11.875C23.5629 10.2494 23.0274 8.7045 22.069 7.42525L25.6879 3.84038V7.625H27.8129V0.1875H20.3754ZM13.8676 8.95312C13.7464 9.04556 13.6104 9.14225 13.5021 9.25062C13.0431 9.71175 12.7434 10.2706 12.5734 10.8794C13.7316 11.0282 14.7888 11.5339 15.6281 12.3733C16.6322 13.3752 17.19 14.7055 17.19 16.1239C17.19 17.5424 16.6322 18.8716 15.6281 19.8746C14.6251 20.8818 13.2949 21.4375 11.8754 21.4375C10.4559 21.4375 9.12669 20.8797 8.12476 19.8756C7.62862 19.3853 7.23502 18.8012 6.96687 18.1573C6.69872 17.5134 6.56139 16.8225 6.56288 16.125C6.56288 15.2059 6.82319 14.3506 7.25988 13.5686C7.1532 13.0103 7.09772 12.4434 7.09413 11.875C7.09413 11.3459 7.13876 10.8231 7.22694 10.3131C7.01444 10.4863 6.82638 10.6829 6.62876 10.8794C5.22626 12.283 4.43788 14.1381 4.43788 16.125C4.43788 17.7506 4.97338 19.2955 5.93176 20.5747L4.14038 22.3672L2.01538 20.2422L0.485382 21.7361L2.61038 23.8611L0.485382 25.9861L2.01538 27.5161L4.14038 25.3911L6.26538 27.5161L7.75819 25.9861L5.63319 23.8611L7.42669 22.0697C8.70718 23.039 10.2694 23.5632 11.8754 23.5625C13.8623 23.5625 15.7174 22.7763 17.122 21.3706C18.5266 19.967 19.3129 18.1119 19.3129 16.125C19.3129 14.1381 18.5266 12.2851 17.1209 10.8784C16.1966 9.954 15.0958 9.28994 13.8676 8.95312Z"/>
    </symbol>
    <symbol id="smile" viewBox="0 0 27 27">
        <path d="M9.30035 15.3999L8.70035 14.5999L7.10035 15.7999L7.70035 16.5999L9.30035 15.3999ZM19.3003 16.5999L19.9003 15.7999L18.3003 14.5999L17.7003 15.3999L19.3003 16.5999ZM13.5003 24.1666C7.60931 24.1666 2.83368 19.391 2.83368 13.4999H0.833679C0.833679 20.4955 6.50474 26.1666 13.5003 26.1666V24.1666ZM24.167 13.4999C24.167 19.391 19.3914 24.1666 13.5003 24.1666V26.1666C20.496 26.1666 26.167 20.4955 26.167 13.4999H24.167ZM13.5003 2.83325C19.3914 2.83325 24.167 7.60888 24.167 13.4999H26.167C26.167 6.50431 20.496 0.833252 13.5003 0.833252V2.83325ZM13.5003 0.833252C6.50474 0.833252 0.833679 6.50431 0.833679 13.4999H2.83368C2.83368 7.60888 7.60931 2.83325 13.5003 2.83325V0.833252ZM7.66701 11.1666H9.33368V9.16658H7.66701V11.1666ZM17.667 11.1666H19.3337V9.16658H17.667V11.1666ZM17.7003 15.3999C15.6003 18.1999 11.4003 18.1999 9.30035 15.3999L7.70035 16.5999C10.6003 20.4666 16.4003 20.4666 19.3003 16.5999L17.7003 15.3999Z"/>
    </symbol>
    <symbol id="arrow" viewBox="0 0 23 23">
        <path d="M21.5004 1.5H12.3337M21.5004 1.5V10.6667M21.5004 1.5L1.50037 21.5" stroke="white" stroke-width="2"/>
    </symbol>
    <symbol id="production" viewBox="0 0 29 24">
        <path d="M6.02193 15.779C5.04565 13.2195 5.02564 10.2937 6.19147 7.57721C8.57743 2.01771 15.02 -0.557065 20.5843 1.82463C26.1468 4.20442 28.7242 10.639 26.3383 16.1985C23.9542 21.7542 17.5117 24.329 11.9492 21.9482C10.7329 21.4279 9.66039 20.7136 8.75078 19.8585"
              stroke="white" stroke-width="1.8" stroke-miterlimit="10" stroke-linejoin="round"/>
        <path d="M10.9805 11.3684C11.0329 10.8415 11.1652 10.3127 11.3853 9.79999C12.5406 7.10727 15.6609 5.8603 18.3555 7.0131C21.05 8.1659 22.2978 11.2819 21.1434 13.9756C20.349 15.8256 18.625 16.9936 16.7496 17.1667"
              stroke="white" stroke-width="1.8" stroke-miterlimit="10" stroke-linejoin="round"/>
        <path d="M15.8942 12.2732L16.5422 11.6486L16.5411 11.6474L15.8942 12.2732ZM15.238 15.8362L15.8623 16.4845L15.8628 16.484L15.238 15.8362ZM11.6481 16.3641L11.0009 16.9894L11.0012 16.9898L11.6481 16.3641ZM2.21446 21.887C1.78137 21.6431 1.23255 21.7965 0.988635 22.2296C0.744726 22.6627 0.898093 23.2115 1.33119 23.4554L2.21446 21.887ZM4.69598 21.2483L5.59329 21.3177L5.5942 21.306L5.5948 21.2943L4.69598 21.2483ZM6.64951 17.4056L6.6378 18.3055L6.72671 18.3067L6.81412 18.2904L6.64951 17.4056ZM8.58018 17.8679L9.05461 17.1031L9.03033 17.088L9.00514 17.0745L8.58018 17.8679ZM12.2203 17.0582C12.4875 16.6391 12.3644 16.0827 11.9453 15.8154C11.5262 15.5482 10.9698 15.6713 10.7026 16.0904L12.2203 17.0582ZM15.2463 12.8978C15.3975 13.0546 15.5048 13.3411 15.4236 13.7825C15.3426 14.2221 15.0793 14.7388 14.6132 15.1884L15.8628 16.484C16.5682 15.8036 17.0374 14.9582 17.1938 14.1085C17.3499 13.2606 17.1997 12.3306 16.5422 11.6486L15.2463 12.8978ZM14.6137 15.1879C14.1472 15.6371 13.6202 15.882 13.1763 15.9473C12.7303 16.013 12.4466 15.8951 12.295 15.7383L11.0012 16.9898C11.6601 17.671 12.5851 17.8537 13.4383 17.7282C14.2936 17.6023 15.1562 17.1643 15.8623 16.4845L14.6137 15.1879ZM12.2953 15.7387C12.1437 15.5817 12.0361 15.2953 12.1173 14.854C12.1981 14.4144 12.4615 13.8977 12.9279 13.4481L11.6789 12.1521C10.9728 12.8325 10.5033 13.6783 10.347 14.5285C10.1909 15.377 10.342 16.3075 11.0009 16.9894L12.2953 15.7387ZM12.9279 13.4481C13.3943 12.9987 13.9212 12.7539 14.3649 12.6888C14.8105 12.6234 15.0949 12.7412 15.2474 12.8989L16.5411 11.6474C15.8821 10.9662 14.9573 10.7825 14.1035 10.9078C13.2478 11.0334 12.385 11.4716 11.6789 12.1521L12.9279 13.4481ZM1.77283 22.6712C1.33119 23.4554 1.33153 23.4556 1.33188 23.4558C1.33202 23.4558 1.33238 23.4561 1.33264 23.4562C1.33317 23.4565 1.33374 23.4568 1.33436 23.4572C1.33558 23.4578 1.33698 23.4586 1.33855 23.4595C1.34169 23.4612 1.3455 23.4633 1.34998 23.4658C1.35892 23.4706 1.37052 23.4769 1.3846 23.4843C1.41273 23.4991 1.45101 23.5186 1.4981 23.5413C1.59182 23.5865 1.72301 23.6455 1.88078 23.7048C2.18575 23.8195 2.63859 23.9541 3.1338 23.9625C3.63873 23.971 4.25637 23.8466 4.76401 23.3629C5.26466 22.8859 5.52619 22.1847 5.59329 21.3177L3.79866 21.1788C3.75195 21.7823 3.59117 21.9942 3.52239 22.0597C3.46059 22.1186 3.36167 22.1661 3.16427 22.1627C2.95715 22.1592 2.72188 22.0981 2.51433 22.02C2.41584 21.983 2.33466 21.9464 2.28009 21.92C2.25303 21.907 2.23317 21.8968 2.22171 21.8908C2.216 21.8878 2.21243 21.8858 2.21116 21.8851C2.21052 21.8848 2.21047 21.8848 2.21101 21.8851C2.21128 21.8852 2.21171 21.8855 2.21228 21.8858C2.21257 21.8859 2.21289 21.8861 2.21326 21.8863C2.21344 21.8864 2.21374 21.8866 2.21383 21.8866C2.21414 21.8868 2.21446 21.887 1.77283 22.6712ZM4.69598 21.2483C5.5948 21.2943 5.59479 21.2945 5.59478 21.2947C5.59478 21.2947 5.59477 21.2949 5.59476 21.295C5.59476 21.2951 5.59475 21.2952 5.59475 21.2952C5.59475 21.2953 5.59475 21.2951 5.59478 21.2948C5.59482 21.294 5.59491 21.2923 5.59506 21.2898C5.59535 21.2848 5.59587 21.2762 5.59665 21.2645C5.59821 21.241 5.60082 21.2046 5.60478 21.1573C5.61272 21.0625 5.62604 20.9245 5.64718 20.7581C5.68993 20.4217 5.76261 19.9856 5.88132 19.5603C6.00359 19.1223 6.15675 18.7623 6.32751 18.5313C6.48749 18.3148 6.58502 18.3048 6.6378 18.3055L6.66121 16.5057C5.83629 16.4949 5.25077 16.9596 4.87989 17.4615C4.5198 17.9488 4.29428 18.5509 4.1476 19.0764C3.99735 19.6146 3.9108 20.1435 3.86154 20.5312C3.83668 20.7268 3.82081 20.8907 3.81106 21.0071C3.80617 21.0654 3.80281 21.1121 3.80061 21.1452C3.79951 21.1618 3.7987 21.175 3.79814 21.1845C3.79786 21.1893 3.79764 21.1932 3.79748 21.1962C3.7974 21.1976 3.79733 21.1989 3.79728 21.1999C3.79725 21.2004 3.79723 21.2008 3.79721 21.2012C3.7972 21.2014 3.79718 21.2017 3.79718 21.2018C3.79717 21.202 3.79716 21.2022 4.69598 21.2483ZM6.64951 17.4056C6.81412 18.2904 6.81369 18.2905 6.81326 18.2906C6.81312 18.2906 6.8127 18.2907 6.81242 18.2907C6.81186 18.2908 6.81132 18.2909 6.81079 18.291C6.80972 18.2912 6.8087 18.2914 6.80772 18.2916C6.80577 18.2919 6.80399 18.2922 6.80239 18.2925C6.79918 18.2931 6.79668 18.2935 6.79486 18.2937C6.79121 18.2943 6.79031 18.2944 6.79203 18.2942C6.79549 18.2938 6.80942 18.2922 6.83305 18.2911C6.88027 18.2889 6.96616 18.2884 7.08465 18.3021C7.31946 18.3293 7.69204 18.4131 8.15521 18.6612L9.00514 17.0745C8.3301 16.7129 7.73735 16.5656 7.29138 16.5141C7.06948 16.4884 6.88611 16.4867 6.74918 16.4931C6.68073 16.4963 6.62386 16.5015 6.57953 16.5067C6.55736 16.5094 6.53832 16.512 6.52251 16.5145C6.51461 16.5157 6.50751 16.5168 6.50124 16.5179C6.4981 16.5184 6.49517 16.5189 6.49245 16.5194C6.49108 16.5196 6.48977 16.5199 6.48851 16.5201C6.48789 16.5202 6.48727 16.5203 6.48667 16.5205C6.48636 16.5205 6.48592 16.5206 6.48577 16.5206C6.48533 16.5207 6.4849 16.5208 6.64951 17.4056ZM8.58018 17.8679C8.10574 18.6327 8.10631 18.633 8.10689 18.6334C8.10709 18.6335 8.10767 18.6339 8.10808 18.6341C8.10888 18.6346 8.10971 18.6351 8.11057 18.6356C8.11228 18.6367 8.11409 18.6378 8.11601 18.6389C8.11985 18.6413 8.1241 18.6438 8.12877 18.6465C8.13809 18.652 8.14907 18.6583 8.16165 18.6653C8.18679 18.6791 8.21852 18.6958 8.25643 18.714C8.33199 18.7503 8.43376 18.7936 8.55832 18.8334C8.80663 18.9128 9.15599 18.9817 9.57102 18.9455C10.4506 18.8689 11.3993 18.3456 12.2203 17.0582L10.7026 16.0904C10.1158 17.0106 9.6239 17.1341 9.41475 17.1523C9.28545 17.1636 9.17845 17.1419 9.10649 17.1189C9.07091 17.1076 9.04657 17.0967 9.03605 17.0916C9.03092 17.0892 9.02961 17.0883 9.03248 17.0899C9.03393 17.0907 9.03646 17.0922 9.04012 17.0943C9.04196 17.0954 9.04408 17.0966 9.04649 17.0981C9.04769 17.0988 9.04897 17.0996 9.05032 17.1004C9.051 17.1008 9.0517 17.1013 9.05241 17.1017C9.05277 17.1019 9.05332 17.1023 9.0535 17.1024C9.05405 17.1027 9.05461 17.1031 8.58018 17.8679Z"
              fill="white"/>
    </symbol>
</svg>
