<svg xmlns="http://www.w3.org/2000/svg" width="0" height="0" class="hidden">
  <symbol id="like" viewBox="0 0 14 12">
    <path d="M5.869,0.990 C4.578,-0.341 2.484,-0.340 1.194,0.990 L1.090,1.097 C-0.370,2.602 -0.369,5.042 1.089,6.544 L6.295,11.911 C6.407,12.027 6.588,12.027 6.701,11.911 L11.907,6.544 C13.365,5.041 13.366,2.603 11.906,1.097 L11.802,0.990 C10.511,-0.341 8.418,-0.341 7.127,0.990 L6.600,1.534 C6.543,1.592 6.451,1.591 6.396,1.534 L5.869,0.990 Z"/>
  </symbol>
  <symbol id="view" viewBox="0 0 18 10">
    <path d="M17.889,5.331 C15.929,8.257 12.598,10.003 8.998,10.003 C5.398,10.003 2.067,8.257 0.107,5.331 C-0.039,5.119 -0.039,4.860 0.107,4.671 C2.067,1.745 5.398,-0.001 8.998,-0.001 C12.598,-0.001 15.929,1.745 17.889,4.671 C18.035,4.883 18.035,5.142 17.889,5.331 ZM8.998,1.226 C5.961,1.226 3.169,2.641 1.406,5.001 C3.169,7.360 5.961,8.776 8.998,8.776 C12.035,8.776 14.827,7.384 16.591,5.001 C14.827,2.641 12.035,1.226 8.998,1.226 ZM8.998,7.809 C7.357,7.809 6.034,6.534 6.034,4.954 C6.034,3.373 7.357,2.099 8.998,2.099 C10.639,2.099 11.962,3.373 11.962,4.930 C11.962,6.511 10.639,7.809 8.998,7.809 ZM9.831,3.184 C9.316,3.184 8.925,3.584 8.925,4.057 C8.925,4.553 9.341,4.930 9.831,4.930 C10.321,4.930 10.712,4.553 10.737,4.057 C10.737,3.561 10.345,3.184 9.831,3.184 Z"/>
  </symbol>
  <symbol id="comment" viewBox="0 0 14 13">
    <path d="M6.440,0.547 C3.361,0.547 0.864,2.334 0.864,4.537 C0.864,4.620 0.868,4.702 0.875,4.784 C0.992,6.159 2.083,7.346 3.660,7.997 C3.849,9.966 2.585,10.749 2.585,10.749 C4.656,10.320 6.027,9.377 6.891,8.513 C9.760,8.349 12.017,6.632 12.017,4.536 C12.017,2.332 9.520,0.547 6.440,0.547 ZM12.783,4.265 C12.876,4.553 12.925,4.854 12.925,5.162 C12.925,7.258 10.668,8.975 7.799,9.139 C7.375,9.562 6.829,10.005 6.139,10.396 C6.708,10.581 7.328,10.698 7.979,10.734 C8.843,11.597 10.213,12.541 12.284,12.969 C12.284,12.969 11.021,12.186 11.209,10.216 C12.880,9.528 14.004,8.236 14.004,6.757 C14.004,5.815 13.548,4.948 12.783,4.265 Z"/>
  </symbol>
  <symbol id="flame" viewBox="0 0 10 15">
    <path d="M3.319,5.687 C2.972,5.332 1.518,4.128 1.123,4.239 C1.123,4.239 2.587,5.205 1.176,7.566 C-1.078,11.335 0.215,13.967 2.470,14.997 C2.311,14.698 2.222,14.358 2.236,13.986 C2.303,12.176 3.458,12.745 3.458,9.611 L4.143,11.416 C4.143,11.416 4.843,10.804 4.947,9.948 C5.052,9.091 4.947,8.342 4.947,8.342 C4.947,8.342 7.779,11.110 7.659,13.190 C7.618,13.919 7.433,14.520 7.162,14.999 C10.269,13.472 8.928,8.652 6.874,5.633 C4.208,1.716 5.410,-0.001 5.410,-0.001 C2.983,0.649 2.658,3.606 3.319,5.687 Z"/>
  </symbol>
  <symbol id="twitter" viewBox="0 0 6701 5446">
    <path d="M6701 645c-247,109 -512,183 -790,216 284,-170 502,-440 604,-761 -266,158 -560,272 -873,334 -251,-267 -608,-434 -1004,-434 -759,0 -1375,616 -1375,1375 0,108 12,213 36,313 -1143,-57 -2156,-605 -2834,-1437 -118,203 -186,439 -186,691 0,477 243,898 612,1144 -225,-7 -437,-69 -623,-172 0,6 0,11 0,17 0,666 474,1222 1103,1348 -115,31 -237,48 -362,48 -89,0 -175,-9 -259,-25 175,546 683,944 1284,955 -471,369 -1063,589 -1708,589 -111,0 -220,-7 -328,-19 608,390 1331,618 2108,618 2529,0 3912,-2095 3912,-3912 0,-60 -1,-119 -4,-178 269,-194 502,-436 686,-712z"/>
  </symbol>
  <symbol id="pinterest" viewBox="0 0 774 1000.2">
    <path d="M0 359c0-42 8.8-83.7 26.5-125s43-79.7 76-115 76.3-64 130-86S345.7 0 411 0c106 0 193 32.7 261 98s102 142.3 102 231c0 114-28.8 208.2-86.5 282.5S555.3 723 464 723c-30 0-58.2-7-84.5-21s-44.8-31-55.5-51l-40 158c-3.3 12.7-7.7 25.5-13 38.5S259.8 873 253.5 885c-6.3 12-12.7 23.3-19 34s-12.7 20.7-19 30-11.8 17.2-16.5 23.5-9 11.8-13 16.5l-6 8c-2 2.7-4.7 3.7-8 3s-5.3-2.7-6-6c0-.7-.5-5.3-1.5-14s-2-17.8-3-27.5-2-22.2-3-37.5-1.3-30.2-1-44.5 1.3-30.2 3-47.5 4.2-33.3 7.5-48c7.3-31.3 32-135.7 74-313-5.3-10.7-9.7-23.5-13-38.5s-5-27.2-5-36.5l-1-15c0-42.7 10.8-78.2 32.5-106.5S303.3 223 334 223c24.7 0 43.8 8.2 57.5 24.5S412 284.3 412 309c0 15.3-2.8 34.2-8.5 56.5s-13.2 48-22.5 77-16 52.5-20 70.5c-6.7 30-.8 56 17.5 78s42.8 33 73.5 33c52.7 0 96.2-29.8 130.5-89.5S634 402.7 634 318c0-64.7-21-117.5-63-158.5S470.3 98 395 98c-84 0-152.2 27-204.5 81S112 297.7 112 373c0 44.7 12.7 82.3 38 113 8.7 10 11.3 20.7 8 32-1.3 3.3-3.3 11-6 23s-4.7 19.7-6 23c-1.3 7.3-4.7 12.2-10 14.5s-11.3 2.2-18-.5c-39.3-16-68.8-43.5-88.5-82.5S0 411 0 359z"/>
  </symbol>
  <symbol id="linkedin" viewBox="0 5 1036 990">
    <path d="M0 120c0-33.334 11.667-60.834 35-82.5C58.333 15.833 88.667 5 126 5c36.667 0 66.333 10.666 89 32 23.333 22 35 50.666 35 86 0 32-11.333 58.666-34 80-23.333 22-54 33-92 33h-1c-36.667 0-66.333-11-89-33S0 153.333 0 120zm13 875V327h222v668H13zm345 0h222V622c0-23.334 2.667-41.334 8-54 9.333-22.667 23.5-41.834 42.5-57.5 19-15.667 42.833-23.5 71.5-23.5 74.667 0 112 50.333 112 151v357h222V612c0-98.667-23.333-173.5-70-224.5S857.667 311 781 311c-86 0-153 37-201 111v2h-1l1-2v-95H358c1.333 21.333 2 87.666 2 199 0 111.333-.667 267.666-2 469z"/>
  </symbol>
  <symbol id="facebook" viewBox="88.428 12.828 107.543 207.085">
    <path d="M158.232 219.912v-94.461h31.707l4.747-36.813h-36.454V65.134c0-10.658 2.96-17.922 18.245-17.922l19.494-.009V14.278c-3.373-.447-14.944-1.449-28.406-1.449-28.106 0-47.348 17.155-47.348 48.661v27.149H88.428v36.813h31.788v94.461l38.016-.001z"/>
  </symbol>
  <symbol id="reply-twitter" viewBox="0 0 24 24">
    <path d="M14.046 2.242l-4.148-.01h-.002c-4.374 0-7.8 3.427-7.8 7.802 0 4.098 3.186 7.206 7.465 7.37v3.828c0 .108.044.286.12.403.142.225.384.347.632.347.138 0 .277-.038.402-.118.264-.168 6.473-4.14 8.088-5.506 1.902-1.61 3.04-3.97 3.043-6.312v-.017c-.006-4.367-3.43-7.787-7.8-7.788zm3.787 12.972c-1.134.96-4.862 3.405-6.772 4.643V16.67c0-.414-.335-.75-.75-.75h-.396c-3.66 0-6.318-2.476-6.318-5.886 0-3.534 2.768-6.302 6.3-6.302l4.147.01h.002c3.532 0 6.3 2.766 6.302 6.296-.003 1.91-.942 3.844-2.514 5.176z"/>
  </symbol>
  <symbol id="like-twitter" viewBox="0 0 24 24">
    <path d="M12 21.638h-.014C9.403 21.59 1.95 14.856 1.95 8.478c0-3.064 2.525-5.754 5.403-5.754 2.29 0 3.83 1.58 4.646 2.73.814-1.148 2.354-2.73 4.645-2.73 2.88 0 5.404 2.69 5.404 5.755 0 6.376-7.454 13.11-10.037 13.157H12zM7.354 4.225c-2.08 0-3.903 1.988-3.903 4.255 0 5.74 7.034 11.596 8.55 11.658 1.518-.062 8.55-5.917 8.55-11.658 0-2.267-1.823-4.255-3.903-4.255-2.528 0-3.94 2.936-3.952 2.965-.23.562-1.156.562-1.387 0-.014-.03-1.425-2.965-3.954-2.965z"/>
  </symbol>
  <symbol id="home" viewBox="0 0 14 12">
    <path d="M11.480,4.662 L11.480,1.285 L9.520,1.285 L9.520,2.622 L7.000,-0.000 L-0.000,7.285 L1.680,7.285 L1.680,11.999 L6.020,11.999 L6.020,8.142 L7.980,8.142 L7.980,11.999 L12.320,11.999 L12.320,7.285 L14.000,7.285 L11.480,4.662 Z"/>
  </symbol>
  <symbol id="search" viewBox="0 0 13 12">
    <path d="M12.789,11.149 L10.108,8.459 C10.846,7.560 11.304,6.429 11.304,5.179 C11.314,2.329 8.992,-0.001 6.143,-0.001 C3.293,-0.001 0.981,2.329 0.981,5.179 C0.981,8.030 3.303,10.360 6.143,10.360 C7.388,10.360 8.514,9.899 9.411,9.160 L12.091,11.850 C12.191,11.950 12.321,12.000 12.440,12.000 C12.560,12.000 12.699,11.950 12.789,11.850 C12.988,11.660 12.988,11.339 12.789,11.149 ZM1.977,5.179 C1.977,2.880 3.851,1.000 6.143,1.000 C8.434,1.000 10.308,2.880 10.308,5.179 C10.308,7.480 8.434,9.360 6.143,9.360 C3.851,9.360 1.977,7.490 1.977,5.179 Z"/>
  </symbol>
  <symbol id="menu" viewBox="0 0 21 15">
    <path d="M-0.000,15.000 L-0.000,12.000 L21.000,12.000 L21.000,15.000 L-0.000,15.000 ZM-0.000,6.000 L21.000,6.000 L21.000,9.000 L-0.000,9.000 L-0.000,6.000 ZM-0.000,-0.000 L21.000,-0.000 L21.000,3.000 L-0.000,3.000 L-0.000,-0.000 Z"/>
  </symbol>
  <symbol id="info" viewBox="0 0 74 74">
    <path fill-rule="evenodd"  stroke-width="1px" stroke="rgb(0, 0, 0)" fill-opacity="0" fill="rgb(0, 0, 0)" d="M69.000,37.000 L69.000,69.000 L37.000,69.000 C19.327,69.000 5.000,54.673 5.000,37.000 C5.000,19.327 19.327,5.000 37.000,5.000 C54.673,5.000 69.000,19.327 69.000,37.000 ZM39.000,26.000 L35.000,26.000 L35.000,42.000 L39.000,42.000 L39.000,26.000 ZM39.000,45.000 L35.000,45.000 L35.000,49.000 L39.000,49.000 L39.000,45.000 Z"/>
  </symbol>
  <symbol id="plus" viewBox="0 0 12 13">
    <path d="M11.000,8.000 L7.000,8.000 L7.000,12.000 C7.000,12.552 6.552,13.000 6.000,13.000 C5.448,13.000 5.000,12.552 5.000,12.000 L5.000,8.000 L1.000,8.000 C0.448,8.000 -0.000,7.552 -0.000,7.000 C-0.000,6.448 0.448,6.000 1.000,6.000 L5.000,6.000 L5.000,0.999 C5.000,0.447 5.448,-0.000 6.000,-0.000 C6.552,-0.000 7.000,0.447 7.000,0.999 L7.000,6.000 L11.000,6.000 C11.552,6.000 12.000,6.448 12.000,7.000 C12.000,7.552 11.552,8.000 11.000,8.000 Z"/>
  </symbol>
</svg>







